<?xml version="1.0" encoding="utf-8" standalone="no"?>
<!DOCTYPE svg PUBLIC "-//W3C//DTD SVG 1.1//EN"
  "http://www.w3.org/Graphics/SVG/1.1/DTD/svg11.dtd">
<!-- Created with matplotlib (https://matplotlib.org/) -->
<svg height="360pt" version="1.1" viewBox="0 0 216 360" width="216pt" xmlns="http://www.w3.org/2000/svg" xmlns:xlink="http://www.w3.org/1999/xlink">
 <defs>
  <style type="text/css">
*{stroke-linecap:butt;stroke-linejoin:round;}
  </style>
 </defs>
 <g id="figure_1">
  <g id="patch_1">
   <path d="M 0 360 
L 216 360 
L 216 0 
L 0 0 
z
" style="fill:#ffffff;"/>
  </g>
  <g id="axes_1">
   <g id="patch_2">
    <path d="M 56.79 329.84 
L 203.04 329.84 
L 203.04 25.164 
L 56.79 25.164 
z
" style="fill:#ffffff;"/>
   </g>
   <g id="matplotlib.axis_1">
    <g id="xtick_1">
     <g id="line2d_1">
      <defs>
       <path d="M 0 0 
L 0 6 
" id="mf8ff3db94f" style="stroke:#262626;stroke-width:2;"/>
      </defs>
      <g>
       <use style="fill:#262626;stroke:#262626;stroke-width:2;" x="56.79" xlink:href="#mf8ff3db94f" y="329.84"/>
      </g>
     </g>
    </g>
    <g id="xtick_2">
     <g id="line2d_2">
      <g>
       <use style="fill:#262626;stroke:#262626;stroke-width:2;" x="129.915" xlink:href="#mf8ff3db94f" y="329.84"/>
      </g>
     </g>
    </g>
    <g id="xtick_3">
     <g id="line2d_3">
      <g>
       <use style="fill:#262626;stroke:#262626;stroke-width:2;" x="203.04" xlink:href="#mf8ff3db94f" y="329.84"/>
      </g>
     </g>
    </g>
    <g id="xtick_4">
     <g id="line2d_4"/>
     <g id="text_1">
      <!-- NSSC-32 -->
      <defs>
       <path d="M 52.828125 0 
L 16.015625 58.59375 
Q 16.109375 56.203125 16.265625 53.859375 
Q 16.359375 51.859375 16.421875 49.625 
Q 16.5 47.40625 16.5 45.703125 
L 16.5 0 
L 8.203125 0 
L 8.203125 68.796875 
L 19.046875 68.796875 
L 56.25 9.8125 
Q 56.109375 12.203125 55.953125 14.59375 
Q 55.859375 16.65625 55.765625 19.0625 
Q 55.671875 21.484375 55.671875 23.6875 
L 55.671875 68.796875 
L 64.0625 68.796875 
L 64.0625 0 
z
" id="LiberationSans-78"/>
       <path d="M 62.109375 19 
Q 62.109375 14.65625 60.421875 10.984375 
Q 58.734375 7.328125 55.21875 4.65625 
Q 51.703125 2 46.359375 0.5 
Q 41.015625 -0.984375 33.6875 -0.984375 
Q 20.84375 -0.984375 13.671875 3.515625 
Q 6.5 8.015625 4.546875 16.5 
L 13.578125 18.3125 
Q 14.265625 15.625 15.671875 13.421875 
Q 17.09375 11.234375 19.5 9.640625 
Q 21.921875 8.0625 25.484375 7.171875 
Q 29.046875 6.296875 34.03125 6.296875 
Q 38.1875 6.296875 41.65625 7 
Q 45.125 7.71875 47.609375 9.171875 
Q 50.09375 10.640625 51.484375 12.953125 
Q 52.875 15.28125 52.875 18.5 
Q 52.875 21.875 51.34375 23.96875 
Q 49.8125 26.078125 47.015625 27.4375 
Q 44.234375 28.8125 40.375 29.734375 
Q 36.53125 30.671875 31.84375 31.734375 
Q 28.953125 32.375 26.046875 33.125 
Q 23.140625 33.890625 20.484375 34.9375 
Q 17.828125 35.984375 15.484375 37.390625 
Q 13.140625 38.8125 11.421875 40.796875 
Q 9.71875 42.78125 8.734375 45.390625 
Q 7.765625 48 7.765625 51.421875 
Q 7.765625 56.296875 9.734375 59.78125 
Q 11.71875 63.28125 15.234375 65.53125 
Q 18.75 67.78125 23.53125 68.796875 
Q 28.328125 69.828125 33.890625 69.828125 
Q 40.28125 69.828125 44.8125 68.828125 
Q 49.359375 67.828125 52.484375 65.8125 
Q 55.609375 63.8125 57.484375 60.859375 
Q 59.375 57.90625 60.5 54 
L 51.3125 52.390625 
Q 50.640625 54.890625 49.34375 56.84375 
Q 48.046875 58.796875 45.9375 60.109375 
Q 43.84375 61.421875 40.84375 62.109375 
Q 37.84375 62.796875 33.796875 62.796875 
Q 29 62.796875 25.75 61.9375 
Q 22.515625 61.078125 20.53125 59.609375 
Q 18.5625 58.15625 17.703125 56.171875 
Q 16.84375 54.203125 16.84375 51.90625 
Q 16.84375 48.828125 18.375 46.84375 
Q 19.921875 44.875 22.5625 43.546875 
Q 25.203125 42.234375 28.65625 41.359375 
Q 32.125 40.484375 36.03125 39.59375 
Q 39.203125 38.875 42.359375 38.109375 
Q 45.515625 37.359375 48.390625 36.296875 
Q 51.265625 35.25 53.78125 33.828125 
Q 56.296875 32.421875 58.15625 30.375 
Q 60.015625 28.328125 61.0625 25.53125 
Q 62.109375 22.75 62.109375 19 
z
" id="LiberationSans-83"/>
       <path d="M 38.671875 62.203125 
Q 32.8125 62.203125 28.296875 60.25 
Q 23.78125 58.296875 20.71875 54.6875 
Q 17.671875 51.078125 16.109375 46 
Q 14.546875 40.921875 14.546875 34.71875 
Q 14.546875 28.515625 16.234375 23.359375 
Q 17.921875 18.21875 21.0625 14.5 
Q 24.21875 10.796875 28.78125 8.734375 
Q 33.34375 6.6875 39.0625 6.6875 
Q 43.0625 6.6875 46.359375 7.734375 
Q 49.65625 8.796875 52.3125 10.6875 
Q 54.984375 12.59375 57.078125 15.203125 
Q 59.1875 17.828125 60.796875 21 
L 68.40625 17.1875 
Q 66.546875 13.328125 63.8125 10 
Q 61.078125 6.6875 57.390625 4.25 
Q 53.71875 1.8125 49.046875 0.40625 
Q 44.390625 -0.984375 38.625 -0.984375 
Q 30.28125 -0.984375 24 1.671875 
Q 17.71875 4.34375 13.5 9.109375 
Q 9.28125 13.875 7.171875 20.40625 
Q 5.078125 26.953125 5.078125 34.71875 
Q 5.078125 42.78125 7.296875 49.265625 
Q 9.515625 55.765625 13.78125 60.328125 
Q 18.0625 64.890625 24.3125 67.359375 
Q 30.5625 69.828125 38.578125 69.828125 
Q 49.5625 69.828125 56.9375 65.53125 
Q 64.3125 61.234375 67.78125 52.78125 
L 58.9375 49.859375 
Q 57.953125 52.296875 56.296875 54.515625 
Q 54.640625 56.734375 52.140625 58.4375 
Q 49.65625 60.15625 46.3125 61.171875 
Q 42.96875 62.203125 38.671875 62.203125 
z
" id="LiberationSans-67"/>
       <path d="M 4.4375 22.65625 
L 4.4375 30.46875 
L 28.859375 30.46875 
L 28.859375 22.65625 
z
" id="LiberationSans-45"/>
       <path d="M 51.21875 19 
Q 51.21875 14.265625 49.671875 10.546875 
Q 48.140625 6.84375 45.1875 4.265625 
Q 42.234375 1.703125 37.859375 0.359375 
Q 33.5 -0.984375 27.875 -0.984375 
Q 21.484375 -0.984375 17.109375 0.609375 
Q 12.75 2.203125 9.90625 4.8125 
Q 7.078125 7.421875 5.65625 10.765625 
Q 4.25 14.109375 3.8125 17.671875 
L 12.890625 18.5 
Q 13.28125 15.765625 14.328125 13.515625 
Q 15.375 11.28125 17.1875 9.671875 
Q 19 8.0625 21.625 7.171875 
Q 24.265625 6.296875 27.875 6.296875 
Q 34.515625 6.296875 38.296875 9.5625 
Q 42.09375 12.84375 42.09375 19.28125 
Q 42.09375 23.09375 40.40625 25.40625 
Q 38.71875 27.734375 36.203125 29.03125 
Q 33.6875 30.328125 30.734375 30.765625 
Q 27.78125 31.203125 25.296875 31.203125 
L 20.3125 31.203125 
L 20.3125 38.8125 
L 25.09375 38.8125 
Q 27.59375 38.8125 30.265625 39.328125 
Q 32.953125 39.84375 35.171875 41.1875 
Q 37.40625 42.53125 38.84375 44.828125 
Q 40.28125 47.125 40.28125 50.6875 
Q 40.28125 56.203125 37.03125 59.390625 
Q 33.796875 62.59375 27.390625 62.59375 
Q 21.578125 62.59375 17.984375 59.609375 
Q 14.40625 56.640625 13.8125 51.21875 
L 4.984375 51.90625 
Q 5.515625 56.453125 7.46875 59.8125 
Q 9.421875 63.1875 12.421875 65.40625 
Q 15.4375 67.625 19.28125 68.71875 
Q 23.140625 69.828125 27.484375 69.828125 
Q 33.25 69.828125 37.390625 68.375 
Q 41.546875 66.9375 44.1875 64.46875 
Q 46.828125 62.015625 48.0625 58.6875 
Q 49.3125 55.375 49.3125 51.609375 
Q 49.3125 48.578125 48.484375 45.9375 
Q 47.65625 43.3125 45.890625 41.203125 
Q 44.140625 39.109375 41.421875 37.59375 
Q 38.71875 36.078125 34.90625 35.296875 
L 34.90625 35.109375 
Q 39.0625 34.671875 42.140625 33.21875 
Q 45.21875 31.78125 47.21875 29.625 
Q 49.21875 27.484375 50.21875 24.75 
Q 51.21875 22.015625 51.21875 19 
z
" id="LiberationSans-51"/>
       <path d="M 5.03125 0 
L 5.03125 6.203125 
Q 7.515625 11.921875 11.109375 16.28125 
Q 14.703125 20.65625 18.65625 24.1875 
Q 22.609375 27.734375 26.484375 30.765625 
Q 30.375 33.796875 33.5 36.8125 
Q 36.625 39.84375 38.546875 43.15625 
Q 40.484375 46.484375 40.484375 50.6875 
Q 40.484375 53.609375 39.59375 55.828125 
Q 38.71875 58.0625 37.0625 59.5625 
Q 35.40625 61.078125 33.078125 61.828125 
Q 30.765625 62.59375 27.9375 62.59375 
Q 25.296875 62.59375 22.96875 61.859375 
Q 20.65625 61.140625 18.84375 59.671875 
Q 17.046875 58.203125 15.890625 56.03125 
Q 14.75 53.859375 14.40625 50.984375 
L 5.421875 51.8125 
Q 5.859375 55.515625 7.46875 58.78125 
Q 9.078125 62.0625 11.90625 64.53125 
Q 14.75 67 18.71875 68.40625 
Q 22.703125 69.828125 27.9375 69.828125 
Q 33.0625 69.828125 37.0625 68.609375 
Q 41.0625 67.390625 43.8125 64.984375 
Q 46.578125 62.59375 48.046875 59.078125 
Q 49.515625 55.5625 49.515625 50.984375 
Q 49.515625 47.515625 48.265625 44.390625 
Q 47.015625 41.265625 44.9375 38.421875 
Q 42.875 35.59375 40.140625 32.953125 
Q 37.40625 30.328125 34.421875 27.8125 
Q 31.453125 25.296875 28.421875 22.828125 
Q 25.390625 20.359375 22.71875 17.859375 
Q 20.0625 15.375 17.96875 12.8125 
Q 15.875 10.25 14.703125 7.46875 
L 50.59375 7.46875 
L 50.59375 0 
z
" id="LiberationSans-50"/>
      </defs>
      <g style="fill:#262626;" transform="translate(68.010938 344.93625)scale(0.12 -0.12)">
       <use xlink:href="#LiberationSans-78"/>
       <use x="72.216797" xlink:href="#LiberationSans-83"/>
       <use x="138.916016" xlink:href="#LiberationSans-83"/>
       <use x="205.615234" xlink:href="#LiberationSans-67"/>
       <use x="277.832031" xlink:href="#LiberationSans-45"/>
       <use x="311.132812" xlink:href="#LiberationSans-51"/>
       <use x="366.748047" xlink:href="#LiberationSans-50"/>
      </g>
     </g>
    </g>
    <g id="xtick_5">
     <g id="line2d_5"/>
     <g id="text_2">
      <!-- NSSCP-32 -->
      <defs>
       <path d="M 61.421875 48.09375 
Q 61.421875 43.609375 59.9375 39.71875 
Q 58.453125 35.84375 55.5 32.984375 
Q 52.546875 30.125 48.09375 28.46875 
Q 43.65625 26.8125 37.75 26.8125 
L 17.53125 26.8125 
L 17.53125 0 
L 8.203125 0 
L 8.203125 68.796875 
L 37.15625 68.796875 
Q 43.265625 68.796875 47.796875 67.3125 
Q 52.34375 65.828125 55.375 63.109375 
Q 58.40625 60.40625 59.90625 56.5625 
Q 61.421875 52.734375 61.421875 48.09375 
z
M 52.046875 48 
Q 52.046875 54.546875 48.046875 57.9375 
Q 44.046875 61.328125 36.03125 61.328125 
L 17.53125 61.328125 
L 17.53125 34.1875 
L 36.421875 34.1875 
Q 44.484375 34.1875 48.265625 37.75 
Q 52.046875 41.3125 52.046875 48 
z
" id="LiberationSans-80"/>
      </defs>
      <g style="fill:#262626;" transform="translate(137.13375 344.93625)scale(0.12 -0.12)">
       <use xlink:href="#LiberationSans-78"/>
       <use x="72.216797" xlink:href="#LiberationSans-83"/>
       <use x="138.916016" xlink:href="#LiberationSans-83"/>
       <use x="205.615234" xlink:href="#LiberationSans-67"/>
       <use x="277.832031" xlink:href="#LiberationSans-80"/>
       <use x="344.53125" xlink:href="#LiberationSans-45"/>
       <use x="377.832031" xlink:href="#LiberationSans-51"/>
       <use x="433.447266" xlink:href="#LiberationSans-50"/>
      </g>
     </g>
    </g>
   </g>
   <g id="matplotlib.axis_2">
    <g id="ytick_1">
     <g id="line2d_6">
      <defs>
       <path d="M 0 0 
L -6 0 
" id="mf1ff05a0b7" style="stroke:#262626;stroke-width:2;"/>
      </defs>
      <g>
       <use style="fill:#262626;stroke:#262626;stroke-width:2;" x="56.79" xlink:href="#mf1ff05a0b7" y="320.260263"/>
      </g>
     </g>
     <g id="text_3">
      <!-- 0.5 -->
      <defs>
       <path d="M 51.703125 34.421875 
Q 51.703125 24.515625 49.828125 17.75 
Q 47.953125 10.984375 44.703125 6.8125 
Q 41.453125 2.640625 37.0625 0.828125 
Q 32.671875 -0.984375 27.6875 -0.984375 
Q 22.65625 -0.984375 18.3125 0.828125 
Q 13.96875 2.640625 10.765625 6.78125 
Q 7.5625 10.9375 5.734375 17.703125 
Q 3.90625 24.46875 3.90625 34.421875 
Q 3.90625 44.828125 5.734375 51.640625 
Q 7.5625 58.453125 10.78125 62.5 
Q 14.015625 66.546875 18.40625 68.1875 
Q 22.796875 69.828125 27.984375 69.828125 
Q 32.90625 69.828125 37.21875 68.1875 
Q 41.546875 66.546875 44.765625 62.5 
Q 48 58.453125 49.84375 51.640625 
Q 51.703125 44.828125 51.703125 34.421875 
z
M 42.78125 34.421875 
Q 42.78125 42.625 41.796875 48.0625 
Q 40.828125 53.515625 38.921875 56.765625 
Q 37.015625 60.015625 34.25 61.359375 
Q 31.5 62.703125 27.984375 62.703125 
Q 24.265625 62.703125 21.4375 61.328125 
Q 18.609375 59.96875 16.671875 56.71875 
Q 14.75 53.46875 13.765625 48.015625 
Q 12.796875 42.578125 12.796875 34.421875 
Q 12.796875 26.515625 13.796875 21.09375 
Q 14.796875 15.671875 16.71875 12.375 
Q 18.65625 9.078125 21.4375 7.640625 
Q 24.21875 6.203125 27.78125 6.203125 
Q 31.25 6.203125 34.03125 7.640625 
Q 36.8125 9.078125 38.734375 12.375 
Q 40.671875 15.671875 41.71875 21.09375 
Q 42.78125 26.515625 42.78125 34.421875 
z
" id="LiberationSans-48"/>
       <path d="M 9.125 0 
L 9.125 10.6875 
L 18.65625 10.6875 
L 18.65625 0 
z
" id="LiberationSans-46"/>
       <path d="M 51.421875 22.40625 
Q 51.421875 17.234375 49.859375 12.9375 
Q 48.296875 8.640625 45.21875 5.53125 
Q 42.140625 2.4375 37.578125 0.71875 
Q 33.015625 -0.984375 27 -0.984375 
Q 21.578125 -0.984375 17.546875 0.28125 
Q 13.53125 1.5625 10.734375 3.78125 
Q 7.953125 6 6.3125 8.984375 
Q 4.6875 11.96875 4 15.375 
L 12.890625 16.40625 
Q 13.421875 14.453125 14.390625 12.625 
Q 15.375 10.796875 17.0625 9.34375 
Q 18.75 7.90625 21.21875 7.046875 
Q 23.6875 6.203125 27.203125 6.203125 
Q 30.609375 6.203125 33.390625 7.25 
Q 36.1875 8.296875 38.15625 10.34375 
Q 40.140625 12.40625 41.203125 15.375 
Q 42.28125 18.359375 42.28125 22.21875 
Q 42.28125 25.390625 41.25 28.046875 
Q 40.234375 30.71875 38.328125 32.640625 
Q 36.421875 34.578125 33.65625 35.640625 
Q 30.90625 36.71875 27.390625 36.71875 
Q 25.203125 36.71875 23.34375 36.328125 
Q 21.484375 35.9375 19.890625 35.25 
Q 18.3125 34.578125 17.015625 33.671875 
Q 15.71875 32.765625 14.59375 31.78125 
L 6 31.78125 
L 8.296875 68.796875 
L 47.40625 68.796875 
L 47.40625 61.328125 
L 16.3125 61.328125 
L 14.984375 39.5 
Q 17.328125 41.3125 20.84375 42.59375 
Q 24.359375 43.890625 29.203125 43.890625 
Q 34.328125 43.890625 38.421875 42.328125 
Q 42.53125 40.765625 45.40625 37.90625 
Q 48.296875 35.0625 49.859375 31.109375 
Q 51.421875 27.15625 51.421875 22.40625 
z
" id="LiberationSans-53"/>
      </defs>
      <g style="fill:#262626;" transform="translate(30.61 324.608388)scale(0.12 -0.12)">
       <use xlink:href="#LiberationSans-48"/>
       <use x="55.615234" xlink:href="#LiberationSans-46"/>
       <use x="83.398438" xlink:href="#LiberationSans-53"/>
      </g>
     </g>
    </g>
    <g id="ytick_2">
     <g id="line2d_7">
      <g>
       <use style="fill:#262626;stroke:#262626;stroke-width:2;" x="56.79" xlink:href="#mf1ff05a0b7" y="254.131712"/>
      </g>
     </g>
     <g id="text_4">
      <!-- 1.0 -->
      <defs>
       <path d="M 7.625 0 
L 7.625 7.46875 
L 25.140625 7.46875 
L 25.140625 60.40625 
L 9.625 49.3125 
L 9.625 57.625 
L 25.875 68.796875 
L 33.984375 68.796875 
L 33.984375 7.46875 
L 50.734375 7.46875 
L 50.734375 0 
z
" id="LiberationSans-49"/>
      </defs>
      <g style="fill:#262626;" transform="translate(30.61 258.479837)scale(0.12 -0.12)">
       <use xlink:href="#LiberationSans-49"/>
       <use x="55.615234" xlink:href="#LiberationSans-46"/>
       <use x="83.398438" xlink:href="#LiberationSans-48"/>
      </g>
     </g>
    </g>
    <g id="ytick_3">
     <g id="line2d_8">
      <g>
       <use style="fill:#262626;stroke:#262626;stroke-width:2;" x="56.79" xlink:href="#mf1ff05a0b7" y="188.00316"/>
      </g>
     </g>
     <g id="text_5">
      <!-- 1.5 -->
      <g style="fill:#262626;" transform="translate(30.61 192.351285)scale(0.12 -0.12)">
       <use xlink:href="#LiberationSans-49"/>
       <use x="55.615234" xlink:href="#LiberationSans-46"/>
       <use x="83.398438" xlink:href="#LiberationSans-53"/>
      </g>
     </g>
    </g>
    <g id="ytick_4">
     <g id="line2d_9">
      <g>
       <use style="fill:#262626;stroke:#262626;stroke-width:2;" x="56.79" xlink:href="#mf1ff05a0b7" y="121.874608"/>
      </g>
     </g>
     <g id="text_6">
      <!-- 2.0 -->
      <g style="fill:#262626;" transform="translate(30.61 126.222733)scale(0.12 -0.12)">
       <use xlink:href="#LiberationSans-50"/>
       <use x="55.615234" xlink:href="#LiberationSans-46"/>
       <use x="83.398438" xlink:href="#LiberationSans-48"/>
      </g>
     </g>
    </g>
    <g id="ytick_5">
     <g id="line2d_10">
      <g>
       <use style="fill:#262626;stroke:#262626;stroke-width:2;" x="56.79" xlink:href="#mf1ff05a0b7" y="55.746057"/>
      </g>
     </g>
     <g id="text_7">
      <!-- 2.5 -->
      <g style="fill:#262626;" transform="translate(30.61 60.094182)scale(0.12 -0.12)">
       <use xlink:href="#LiberationSans-50"/>
       <use x="55.615234" xlink:href="#LiberationSans-46"/>
       <use x="83.398438" xlink:href="#LiberationSans-53"/>
      </g>
     </g>
    </g>
    <g id="text_8">
     <!-- Ratio of PopZ pole to opposite pole -->
     <defs>
      <path d="M 56.84375 0 
L 38.96875 28.5625 
L 17.53125 28.5625 
L 17.53125 0 
L 8.203125 0 
L 8.203125 68.796875 
L 40.578125 68.796875 
Q 46.4375 68.796875 50.953125 67.453125 
Q 55.46875 66.109375 58.546875 63.5625 
Q 61.625 61.03125 63.234375 57.375 
Q 64.84375 53.71875 64.84375 49.125 
Q 64.84375 45.84375 63.890625 42.671875 
Q 62.9375 39.5 60.890625 36.859375 
Q 58.84375 34.234375 55.65625 32.328125 
Q 52.484375 30.421875 48.046875 29.640625 
L 67.578125 0 
z
M 55.46875 49.03125 
Q 55.46875 52.15625 54.390625 54.4375 
Q 53.328125 56.734375 51.265625 58.265625 
Q 49.21875 59.8125 46.28125 60.5625 
Q 43.359375 61.328125 39.65625 61.328125 
L 17.53125 61.328125 
L 17.53125 35.9375 
L 40.046875 35.9375 
Q 44.046875 35.9375 46.96875 36.9375 
Q 49.90625 37.9375 51.78125 39.6875 
Q 53.65625 41.453125 54.5625 43.84375 
Q 55.46875 46.234375 55.46875 49.03125 
z
" id="LiberationSans-82"/>
      <path d="M 20.21875 -0.984375 
Q 12.25 -0.984375 8.25 3.21875 
Q 4.25 7.421875 4.25 14.75 
Q 4.25 19.96875 6.21875 23.3125 
Q 8.203125 26.65625 11.390625 28.5625 
Q 14.59375 30.46875 18.6875 31.203125 
Q 22.796875 31.9375 27.046875 32.03125 
L 38.921875 32.234375 
L 38.921875 35.109375 
Q 38.921875 38.375 38.234375 40.671875 
Q 37.546875 42.96875 36.125 44.375 
Q 34.71875 45.796875 32.59375 46.453125 
Q 30.46875 47.125 27.59375 47.125 
Q 25.046875 47.125 23 46.75 
Q 20.953125 46.390625 19.4375 45.4375 
Q 17.921875 44.484375 16.984375 42.84375 
Q 16.0625 41.21875 15.765625 38.71875 
L 6.59375 39.546875 
Q 7.078125 42.671875 8.4375 45.28125 
Q 9.8125 47.90625 12.328125 49.796875 
Q 14.84375 51.703125 18.625 52.75 
Q 22.40625 53.8125 27.78125 53.8125 
Q 37.75 53.8125 42.765625 49.234375 
Q 47.796875 44.671875 47.796875 36.03125 
L 47.796875 13.28125 
Q 47.796875 9.375 48.828125 7.390625 
Q 49.859375 5.421875 52.734375 5.421875 
Q 53.46875 5.421875 54.203125 5.515625 
Q 54.9375 5.609375 55.609375 5.765625 
L 55.609375 0.296875 
Q 53.953125 -0.09375 52.3125 -0.28125 
Q 50.6875 -0.484375 48.828125 -0.484375 
Q 46.34375 -0.484375 44.5625 0.171875 
Q 42.78125 0.828125 41.65625 2.171875 
Q 40.53125 3.515625 39.9375 5.484375 
Q 39.359375 7.46875 39.203125 10.109375 
L 38.921875 10.109375 
Q 37.5 7.5625 35.8125 5.515625 
Q 34.125 3.46875 31.875 2.03125 
Q 29.640625 0.59375 26.78125 -0.1875 
Q 23.921875 -0.984375 20.21875 -0.984375 
z
M 22.21875 5.609375 
Q 26.421875 5.609375 29.5625 7.140625 
Q 32.71875 8.6875 34.78125 11.078125 
Q 36.859375 13.484375 37.890625 16.3125 
Q 38.921875 19.140625 38.921875 21.734375 
L 38.921875 26.078125 
L 29.296875 25.875 
Q 26.078125 25.828125 23.171875 25.40625 
Q 20.265625 25 18.0625 23.78125 
Q 15.875 22.5625 14.578125 20.359375 
Q 13.28125 18.171875 13.28125 14.59375 
Q 13.28125 10.296875 15.59375 7.953125 
Q 17.921875 5.609375 22.21875 5.609375 
z
" id="LiberationSans-97"/>
      <path d="M 27.046875 0.390625 
Q 25.046875 -0.140625 22.96875 -0.453125 
Q 20.90625 -0.78125 18.171875 -0.78125 
Q 7.625 -0.78125 7.625 11.1875 
L 7.625 46.4375 
L 1.515625 46.4375 
L 1.515625 52.828125 
L 7.953125 52.828125 
L 10.546875 64.65625 
L 16.40625 64.65625 
L 16.40625 52.828125 
L 26.171875 52.828125 
L 26.171875 46.4375 
L 16.40625 46.4375 
L 16.40625 13.09375 
Q 16.40625 9.28125 17.640625 7.734375 
Q 18.890625 6.203125 21.96875 6.203125 
Q 23.25 6.203125 24.4375 6.390625 
Q 25.640625 6.59375 27.046875 6.890625 
z
" id="LiberationSans-116"/>
      <path d="M 6.6875 64.0625 
L 6.6875 72.46875 
L 15.484375 72.46875 
L 15.484375 64.0625 
z
M 6.6875 0 
L 6.6875 52.828125 
L 15.484375 52.828125 
L 15.484375 0 
z
" id="LiberationSans-105"/>
      <path d="M 51.421875 26.46875 
Q 51.421875 12.59375 45.3125 5.796875 
Q 39.203125 -0.984375 27.59375 -0.984375 
Q 22.078125 -0.984375 17.71875 0.671875 
Q 13.375 2.34375 10.375 5.765625 
Q 7.375 9.1875 5.78125 14.328125 
Q 4.203125 19.484375 4.203125 26.46875 
Q 4.203125 53.8125 27.875 53.8125 
Q 34.03125 53.8125 38.5 52.09375 
Q 42.96875 50.390625 45.828125 46.96875 
Q 48.6875 43.5625 50.046875 38.421875 
Q 51.421875 33.296875 51.421875 26.46875 
z
M 42.1875 26.46875 
Q 42.1875 32.625 41.234375 36.625 
Q 40.28125 40.625 38.453125 43.015625 
Q 36.625 45.40625 33.984375 46.359375 
Q 31.34375 47.3125 28.03125 47.3125 
Q 24.65625 47.3125 21.9375 46.3125 
Q 19.234375 45.3125 17.328125 42.890625 
Q 15.4375 40.484375 14.421875 36.46875 
Q 13.421875 32.46875 13.421875 26.46875 
Q 13.421875 20.3125 14.5 16.28125 
Q 15.578125 12.25 17.453125 9.859375 
Q 19.34375 7.46875 21.90625 6.484375 
Q 24.46875 5.515625 27.484375 5.515625 
Q 30.859375 5.515625 33.59375 6.46875 
Q 36.328125 7.421875 38.234375 9.8125 
Q 40.140625 12.203125 41.15625 16.25 
Q 42.1875 20.3125 42.1875 26.46875 
z
" id="LiberationSans-111"/>
      <path id="LiberationSans-32"/>
      <path d="M 17.625 46.4375 
L 17.625 0 
L 8.84375 0 
L 8.84375 46.4375 
L 1.421875 46.4375 
L 1.421875 52.828125 
L 8.84375 52.828125 
L 8.84375 58.796875 
Q 8.84375 61.671875 9.375 64.140625 
Q 9.90625 66.609375 11.34375 68.4375 
Q 12.796875 70.265625 15.28125 71.3125 
Q 17.78125 72.359375 21.734375 72.359375 
Q 23.296875 72.359375 24.96875 72.21875 
Q 26.65625 72.078125 27.9375 71.78125 
L 27.9375 65.09375 
Q 27.09375 65.234375 26 65.359375 
Q 24.90625 65.484375 24.03125 65.484375 
Q 22.078125 65.484375 20.828125 64.9375 
Q 19.578125 64.40625 18.875 63.40625 
Q 18.171875 62.40625 17.890625 60.9375 
Q 17.625 59.46875 17.625 57.5625 
L 17.625 52.828125 
L 27.9375 52.828125 
L 27.9375 46.4375 
z
" id="LiberationSans-102"/>
      <path d="M 51.421875 26.65625 
Q 51.421875 20.65625 50.4375 15.578125 
Q 49.46875 10.5 47.1875 6.828125 
Q 44.921875 3.171875 41.1875 1.09375 
Q 37.453125 -0.984375 31.984375 -0.984375 
Q 26.3125 -0.984375 22.0625 1.171875 
Q 17.828125 3.328125 15.578125 8.203125 
L 15.328125 8.203125 
Q 15.375 8.109375 15.40625 7.328125 
Q 15.4375 6.546875 15.453125 5.375 
Q 15.484375 4.203125 15.5 2.75 
Q 15.53125 1.3125 15.53125 -0.09375 
L 15.53125 -20.75 
L 6.734375 -20.75 
L 6.734375 42.046875 
Q 6.734375 43.953125 6.703125 45.703125 
Q 6.6875 47.46875 6.640625 48.90625 
Q 6.59375 50.34375 6.546875 51.359375 
Q 6.5 52.390625 6.453125 52.828125 
L 14.9375 52.828125 
Q 14.984375 52.6875 15.0625 51.796875 
Q 15.140625 50.921875 15.203125 49.671875 
Q 15.28125 48.4375 15.359375 47.015625 
Q 15.4375 45.609375 15.4375 44.34375 
L 15.625 44.34375 
Q 16.84375 46.875 18.40625 48.65625 
Q 19.96875 50.4375 21.96875 51.578125 
Q 23.96875 52.734375 26.4375 53.25 
Q 28.90625 53.765625 31.984375 53.765625 
Q 37.453125 53.765625 41.1875 51.8125 
Q 44.921875 49.859375 47.1875 46.3125 
Q 49.46875 42.78125 50.4375 37.765625 
Q 51.421875 32.765625 51.421875 26.65625 
z
M 42.1875 26.46875 
Q 42.1875 31.34375 41.59375 35.15625 
Q 41.015625 38.96875 39.578125 41.59375 
Q 38.140625 44.234375 35.734375 45.59375 
Q 33.34375 46.96875 29.734375 46.96875 
Q 26.8125 46.96875 24.21875 46.140625 
Q 21.625 45.3125 19.703125 42.96875 
Q 17.78125 40.625 16.65625 36.5 
Q 15.53125 32.375 15.53125 25.78125 
Q 15.53125 20.171875 16.453125 16.28125 
Q 17.390625 12.40625 19.171875 10.015625 
Q 20.953125 7.625 23.578125 6.5625 
Q 26.21875 5.515625 29.640625 5.515625 
Q 33.296875 5.515625 35.71875 6.921875 
Q 38.140625 8.34375 39.578125 11.03125 
Q 41.015625 13.71875 41.59375 17.59375 
Q 42.1875 21.484375 42.1875 26.46875 
z
" id="LiberationSans-112"/>
      <path d="M 57.953125 0 
L 3.171875 0 
L 3.171875 6.984375 
L 45.0625 61.1875 
L 6.734375 61.1875 
L 6.734375 68.796875 
L 55.671875 68.796875 
L 55.671875 62.015625 
L 13.765625 7.625 
L 57.953125 7.625 
z
" id="LiberationSans-90"/>
      <path d="M 6.734375 0 
L 6.734375 72.46875 
L 15.53125 72.46875 
L 15.53125 0 
z
" id="LiberationSans-108"/>
      <path d="M 13.484375 24.5625 
Q 13.484375 20.40625 14.328125 16.90625 
Q 15.1875 13.421875 16.96875 10.90625 
Q 18.75 8.40625 21.53125 7 
Q 24.3125 5.609375 28.21875 5.609375 
Q 33.9375 5.609375 37.375 7.90625 
Q 40.828125 10.203125 42.046875 13.71875 
L 49.75 11.53125 
Q 48.921875 9.328125 47.4375 7.109375 
Q 45.953125 4.890625 43.453125 3.09375 
Q 40.96875 1.3125 37.234375 0.15625 
Q 33.5 -0.984375 28.21875 -0.984375 
Q 16.5 -0.984375 10.375 6 
Q 4.25 12.984375 4.25 26.765625 
Q 4.25 34.1875 6.09375 39.328125 
Q 7.953125 44.484375 11.171875 47.703125 
Q 14.40625 50.921875 18.703125 52.359375 
Q 23 53.8125 27.875 53.8125 
Q 34.515625 53.8125 38.984375 51.65625 
Q 43.453125 49.515625 46.15625 45.71875 
Q 48.875 41.9375 50.015625 36.8125 
Q 51.171875 31.6875 51.171875 25.734375 
L 51.171875 24.5625 
z
M 42.09375 31.296875 
Q 41.359375 39.65625 37.84375 43.484375 
Q 34.328125 47.3125 27.734375 47.3125 
Q 25.53125 47.3125 23.109375 46.609375 
Q 20.703125 45.90625 18.65625 44.09375 
Q 16.609375 42.28125 15.1875 39.171875 
Q 13.765625 36.078125 13.578125 31.296875 
z
" id="LiberationSans-101"/>
      <path d="M 46.390625 14.59375 
Q 46.390625 10.890625 44.9375 7.984375 
Q 43.5 5.078125 40.765625 3.09375 
Q 38.03125 1.125 34.046875 0.0625 
Q 30.078125 -0.984375 24.953125 -0.984375 
Q 20.359375 -0.984375 16.671875 -0.265625 
Q 12.984375 0.4375 10.203125 2 
Q 7.421875 3.5625 5.53125 6.125 
Q 3.65625 8.6875 2.78125 12.40625 
L 10.546875 13.921875 
Q 11.671875 9.671875 15.1875 7.6875 
Q 18.703125 5.71875 24.953125 5.71875 
Q 27.78125 5.71875 30.140625 6.109375 
Q 32.515625 6.5 34.21875 7.453125 
Q 35.9375 8.40625 36.890625 9.984375 
Q 37.84375 11.578125 37.84375 13.921875 
Q 37.84375 16.3125 36.71875 17.84375 
Q 35.59375 19.390625 33.59375 20.40625 
Q 31.59375 21.4375 28.734375 22.1875 
Q 25.875 22.953125 22.46875 23.875 
Q 19.28125 24.703125 16.15625 25.734375 
Q 13.03125 26.765625 10.515625 28.4375 
Q 8.015625 30.125 6.453125 32.609375 
Q 4.890625 35.109375 4.890625 38.875 
Q 4.890625 46.09375 10.03125 49.875 
Q 15.1875 53.65625 25.046875 53.65625 
Q 33.796875 53.65625 38.9375 50.578125 
Q 44.09375 47.515625 45.453125 40.71875 
L 37.546875 39.75 
Q 37.109375 41.796875 35.9375 43.1875 
Q 34.765625 44.578125 33.109375 45.4375 
Q 31.453125 46.296875 29.375 46.65625 
Q 27.296875 47.015625 25.046875 47.015625 
Q 19.09375 47.015625 16.25 45.203125 
Q 13.421875 43.40625 13.421875 39.75 
Q 13.421875 37.59375 14.46875 36.203125 
Q 15.53125 34.8125 17.40625 33.859375 
Q 19.28125 32.90625 21.921875 32.203125 
Q 24.5625 31.5 27.734375 30.71875 
Q 29.828125 30.171875 32.03125 29.5625 
Q 34.234375 28.953125 36.296875 28.09375 
Q 38.375 27.25 40.203125 26.09375 
Q 42.046875 24.953125 43.40625 23.34375 
Q 44.78125 21.734375 45.578125 19.578125 
Q 46.390625 17.4375 46.390625 14.59375 
z
" id="LiberationSans-115"/>
     </defs>
     <g style="fill:#262626;" transform="translate(23.705 286.845281)rotate(-90)scale(0.14 -0.14)">
      <use xlink:href="#LiberationSans-82"/>
      <use x="72.216797" xlink:href="#LiberationSans-97"/>
      <use x="127.832031" xlink:href="#LiberationSans-116"/>
      <use x="155.615234" xlink:href="#LiberationSans-105"/>
      <use x="177.832031" xlink:href="#LiberationSans-111"/>
      <use x="233.447266" xlink:href="#LiberationSans-32"/>
      <use x="261.230469" xlink:href="#LiberationSans-111"/>
      <use x="316.845703" xlink:href="#LiberationSans-102"/>
      <use x="344.628906" xlink:href="#LiberationSans-32"/>
      <use x="372.412109" xlink:href="#LiberationSans-80"/>
      <use x="439.111328" xlink:href="#LiberationSans-111"/>
      <use x="494.726562" xlink:href="#LiberationSans-112"/>
      <use x="550.341797" xlink:href="#LiberationSans-90"/>
      <use x="611.425781" xlink:href="#LiberationSans-32"/>
      <use x="639.208984" xlink:href="#LiberationSans-112"/>
      <use x="694.824219" xlink:href="#LiberationSans-111"/>
      <use x="750.439453" xlink:href="#LiberationSans-108"/>
      <use x="772.65625" xlink:href="#LiberationSans-101"/>
      <use x="828.271484" xlink:href="#LiberationSans-32"/>
      <use x="856.054688" xlink:href="#LiberationSans-116"/>
      <use x="883.837891" xlink:href="#LiberationSans-111"/>
      <use x="939.453125" xlink:href="#LiberationSans-32"/>
      <use x="967.236328" xlink:href="#LiberationSans-111"/>
      <use x="1022.851562" xlink:href="#LiberationSans-112"/>
      <use x="1078.466797" xlink:href="#LiberationSans-112"/>
      <use x="1134.082031" xlink:href="#LiberationSans-111"/>
      <use x="1189.697266" xlink:href="#LiberationSans-115"/>
      <use x="1239.697266" xlink:href="#LiberationSans-105"/>
      <use x="1261.914062" xlink:href="#LiberationSans-116"/>
      <use x="1289.697266" xlink:href="#LiberationSans-101"/>
      <use x="1345.3125" xlink:href="#LiberationSans-32"/>
      <use x="1373.095703" xlink:href="#LiberationSans-112"/>
      <use x="1428.710938" xlink:href="#LiberationSans-111"/>
      <use x="1484.326172" xlink:href="#LiberationSans-108"/>
      <use x="1506.542969" xlink:href="#LiberationSans-101"/>
     </g>
    </g>
   </g>
   <g id="PolyCollection_1">
    <path clip-path="url(#pb927ebfa0f)" d="M 98.782048 315.991091 
L 87.922952 315.991091 
L 87.395056 314.46735 
L 86.82468 312.943609 
L 86.21033 311.419868 
L 85.550962 309.896127 
L 84.84607 308.372387 
L 84.095789 306.848646 
L 83.300978 305.324905 
L 82.463301 303.801164 
L 81.585289 302.277423 
L 80.670394 300.753682 
L 79.723007 299.229941 
L 78.748471 297.706201 
L 77.753051 296.18246 
L 76.743892 294.658719 
L 75.728937 293.134978 
L 74.716824 291.611237 
L 73.71676 290.087496 
L 72.738361 288.563755 
L 71.791485 287.040015 
L 70.886038 285.516274 
L 70.031779 283.992533 
L 69.238108 282.468792 
L 68.513868 280.945051 
L 67.867145 279.42131 
L 67.305084 277.897569 
L 66.833729 276.373829 
L 66.457878 274.850088 
L 66.180978 273.326347 
L 66.005044 271.802606 
L 65.930625 270.278865 
L 65.956792 268.755124 
L 66.081177 267.231383 
L 66.300042 265.707643 
L 66.60838 264.183902 
L 67.000049 262.660161 
L 67.46793 261.13642 
L 68.004103 259.612679 
L 68.600039 258.088938 
L 69.2468 256.565197 
L 69.935233 255.041457 
L 70.656167 253.517716 
L 71.400592 251.993975 
L 72.159827 250.470234 
L 72.925662 248.946493 
L 73.690477 247.422752 
L 74.44734 245.899011 
L 75.190068 244.37527 
L 75.913272 242.85153 
L 76.612363 241.327789 
L 77.283548 239.804048 
L 77.923794 238.280307 
L 78.530779 236.756566 
L 79.102828 235.232825 
L 79.638844 233.709084 
L 80.138227 232.185344 
L 80.600797 230.661603 
L 81.026718 229.137862 
L 81.416429 227.614121 
L 81.770584 226.09038 
L 82.090002 224.566639 
L 82.375627 223.042898 
L 82.628504 221.519158 
L 82.849768 219.995417 
L 83.040636 218.471676 
L 83.20242 216.947935 
L 83.336537 215.424194 
L 83.444533 213.900453 
L 83.528101 212.376712 
L 83.589107 210.852972 
L 83.629606 209.329231 
L 83.65186 207.80549 
L 83.658342 206.281749 
L 83.651734 204.758008 
L 83.634918 203.234267 
L 83.610952 201.710526 
L 83.583037 200.186786 
L 83.554477 198.663045 
L 83.528625 197.139304 
L 83.508828 195.615563 
L 83.498361 194.091822 
L 83.500366 192.568081 
L 83.517779 191.04434 
L 83.553275 189.5206 
L 83.609201 187.996859 
L 83.68753 186.473118 
L 83.789814 184.949377 
L 83.917154 183.425636 
L 84.070177 181.901895 
L 84.249028 180.378154 
L 84.453374 178.854414 
L 84.682419 177.330673 
L 84.934933 175.806932 
L 85.209285 174.283191 
L 85.503495 172.75945 
L 85.815281 171.235709 
L 86.142122 169.711968 
L 86.481315 168.188228 
L 86.83004 166.664487 
L 87.18542 165.140746 
L 99.51958 165.140746 
L 99.51958 165.140746 
L 99.87496 166.664487 
L 100.223685 168.188228 
L 100.562878 169.711968 
L 100.889719 171.235709 
L 101.201505 172.75945 
L 101.495715 174.283191 
L 101.770067 175.806932 
L 102.022581 177.330673 
L 102.251626 178.854414 
L 102.455972 180.378154 
L 102.634823 181.901895 
L 102.787846 183.425636 
L 102.915186 184.949377 
L 103.01747 186.473118 
L 103.095799 187.996859 
L 103.151725 189.5206 
L 103.187221 191.04434 
L 103.204634 192.568081 
L 103.206639 194.091822 
L 103.196172 195.615563 
L 103.176375 197.139304 
L 103.150523 198.663045 
L 103.121963 200.186786 
L 103.094048 201.710526 
L 103.070082 203.234267 
L 103.053266 204.758008 
L 103.046658 206.281749 
L 103.05314 207.80549 
L 103.075394 209.329231 
L 103.115893 210.852972 
L 103.176899 212.376712 
L 103.260467 213.900453 
L 103.368463 215.424194 
L 103.50258 216.947935 
L 103.664364 218.471676 
L 103.855232 219.995417 
L 104.076496 221.519158 
L 104.329373 223.042898 
L 104.614998 224.566639 
L 104.934416 226.09038 
L 105.288571 227.614121 
L 105.678282 229.137862 
L 106.104203 230.661603 
L 106.566773 232.185344 
L 107.066156 233.709084 
L 107.602172 235.232825 
L 108.174221 236.756566 
L 108.781206 238.280307 
L 109.421452 239.804048 
L 110.092637 241.327789 
L 110.791728 242.85153 
L 111.514932 244.37527 
L 112.25766 245.899011 
L 113.014523 247.422752 
L 113.779338 248.946493 
L 114.545173 250.470234 
L 115.304408 251.993975 
L 116.048833 253.517716 
L 116.769767 255.041457 
L 117.4582 256.565197 
L 118.104961 258.088938 
L 118.700897 259.612679 
L 119.23707 261.13642 
L 119.704951 262.660161 
L 120.09662 264.183902 
L 120.404958 265.707643 
L 120.623823 267.231383 
L 120.748208 268.755124 
L 120.774375 270.278865 
L 120.699956 271.802606 
L 120.524022 273.326347 
L 120.247122 274.850088 
L 119.871271 276.373829 
L 119.399916 277.897569 
L 118.837855 279.42131 
L 118.191132 280.945051 
L 117.466892 282.468792 
L 116.673221 283.992533 
L 115.818962 285.516274 
L 114.913515 287.040015 
L 113.966639 288.563755 
L 112.98824 290.087496 
L 111.988176 291.611237 
L 110.976063 293.134978 
L 109.961108 294.658719 
L 108.951949 296.18246 
L 107.956529 297.706201 
L 106.981993 299.229941 
L 106.034606 300.753682 
L 105.119711 302.277423 
L 104.241699 303.801164 
L 103.404022 305.324905 
L 102.609211 306.848646 
L 101.85893 308.372387 
L 101.154038 309.896127 
L 100.49467 311.419868 
L 99.88032 312.943609 
L 99.309944 314.46735 
L 98.782048 315.991091 
z
" style="fill:#656c84;fill-opacity:0.5;stroke:#ffffff;stroke-opacity:0.5;"/>
   </g>
   <g id="PolyCollection_2">
    <path clip-path="url(#pb927ebfa0f)" d="M 186.787285 244.180422 
L 146.167715 244.180422 
L 145.506853 242.108023 
L 144.874919 240.035624 
L 144.274031 237.963225 
L 143.705952 235.890826 
L 143.172074 233.818427 
L 142.673416 231.746028 
L 142.210621 229.673628 
L 141.783966 227.601229 
L 141.393374 225.52883 
L 141.038436 223.456431 
L 140.718432 221.384032 
L 140.432363 219.311633 
L 140.178981 217.239234 
L 139.956827 215.166835 
L 139.764264 213.094435 
L 139.599522 211.022036 
L 139.460731 208.949637 
L 139.345963 206.877238 
L 139.253267 204.804839 
L 139.18071 202.73244 
L 139.126409 200.660041 
L 139.088563 198.587642 
L 139.065484 196.515242 
L 139.055625 194.442843 
L 139.057601 192.370444 
L 139.070212 190.298045 
L 139.092461 188.225646 
L 139.123563 186.153247 
L 139.162961 184.080848 
L 139.210325 182.008449 
L 139.265561 179.936049 
L 139.328803 177.86365 
L 139.40041 175.791251 
L 139.480955 173.718852 
L 139.571211 171.646453 
L 139.672136 169.574054 
L 139.784844 167.501655 
L 139.910587 165.429256 
L 140.050726 163.356857 
L 140.206694 161.284457 
L 140.379971 159.212058 
L 140.572042 157.139659 
L 140.784367 155.06726 
L 141.018338 152.994861 
L 141.275247 150.922462 
L 141.55625 148.850063 
L 141.862334 146.777664 
L 142.194282 144.705264 
L 142.55265 142.632865 
L 142.937741 140.560466 
L 143.349583 138.488067 
L 143.787918 136.415668 
L 144.25219 134.343269 
L 144.741539 132.27087 
L 145.254807 130.198471 
L 145.790539 128.126071 
L 146.347001 126.053672 
L 146.922193 123.981273 
L 147.513872 121.908874 
L 148.119582 119.836475 
L 148.736679 117.764076 
L 149.36237 115.691677 
L 149.993745 113.619278 
L 150.627818 111.546878 
L 151.261564 109.474479 
L 151.89196 107.40208 
L 152.516027 105.329681 
L 153.130863 103.257282 
L 153.733683 101.184883 
L 154.321858 99.112484 
L 154.89294 97.040085 
L 155.444696 94.967685 
L 155.975133 92.895286 
L 156.482521 90.822887 
L 156.965408 88.750488 
L 157.422635 86.678089 
L 157.853347 84.60569 
L 158.256994 82.533291 
L 158.633334 80.460892 
L 158.982425 78.388492 
L 159.304621 76.316093 
L 159.600555 74.243694 
L 159.871122 72.171295 
L 160.11746 70.098896 
L 160.340925 68.026497 
L 160.543062 65.954098 
L 160.725581 63.881699 
L 160.89032 61.809299 
L 161.039214 59.7369 
L 161.174265 57.664501 
L 161.297502 55.592102 
L 161.410953 53.519703 
L 161.516613 51.447304 
L 161.616409 49.374905 
L 161.712175 47.302506 
L 161.805626 45.230106 
L 161.898335 43.157707 
L 161.991713 41.085308 
L 162.086995 39.012909 
L 170.868005 39.012909 
L 170.868005 39.012909 
L 170.963287 41.085308 
L 171.056665 43.157707 
L 171.149374 45.230106 
L 171.242825 47.302506 
L 171.338591 49.374905 
L 171.438387 51.447304 
L 171.544047 53.519703 
L 171.657498 55.592102 
L 171.780735 57.664501 
L 171.915786 59.7369 
L 172.06468 61.809299 
L 172.229419 63.881699 
L 172.411938 65.954098 
L 172.614075 68.026497 
L 172.83754 70.098896 
L 173.083878 72.171295 
L 173.354445 74.243694 
L 173.650379 76.316093 
L 173.972575 78.388492 
L 174.321666 80.460892 
L 174.698006 82.533291 
L 175.101653 84.60569 
L 175.532365 86.678089 
L 175.989592 88.750488 
L 176.472479 90.822887 
L 176.979867 92.895286 
L 177.510304 94.967685 
L 178.06206 97.040085 
L 178.633142 99.112484 
L 179.221317 101.184883 
L 179.824137 103.257282 
L 180.438973 105.329681 
L 181.06304 107.40208 
L 181.693436 109.474479 
L 182.327182 111.546878 
L 182.961255 113.619278 
L 183.59263 115.691677 
L 184.218321 117.764076 
L 184.835418 119.836475 
L 185.441128 121.908874 
L 186.032807 123.981273 
L 186.607999 126.053672 
L 187.164461 128.126071 
L 187.700193 130.198471 
L 188.213461 132.27087 
L 188.70281 134.343269 
L 189.167082 136.415668 
L 189.605417 138.488067 
L 190.017259 140.560466 
L 190.40235 142.632865 
L 190.760718 144.705264 
L 191.092666 146.777664 
L 191.39875 148.850063 
L 191.679753 150.922462 
L 191.936662 152.994861 
L 192.170633 155.06726 
L 192.382958 157.139659 
L 192.575029 159.212058 
L 192.748306 161.284457 
L 192.904274 163.356857 
L 193.044413 165.429256 
L 193.170156 167.501655 
L 193.282864 169.574054 
L 193.383789 171.646453 
L 193.474045 173.718852 
L 193.55459 175.791251 
L 193.626197 177.86365 
L 193.689439 179.936049 
L 193.744675 182.008449 
L 193.792039 184.080848 
L 193.831437 186.153247 
L 193.862539 188.225646 
L 193.884788 190.298045 
L 193.897399 192.370444 
L 193.899375 194.442843 
L 193.889516 196.515242 
L 193.866437 198.587642 
L 193.828591 200.660041 
L 193.77429 202.73244 
L 193.701733 204.804839 
L 193.609037 206.877238 
L 193.494269 208.949637 
L 193.355478 211.022036 
L 193.190736 213.094435 
L 192.998173 215.166835 
L 192.776019 217.239234 
L 192.522637 219.311633 
L 192.236568 221.384032 
L 191.916564 223.456431 
L 191.561626 225.52883 
L 191.171034 227.601229 
L 190.744379 229.673628 
L 190.281584 231.746028 
L 189.782926 233.818427 
L 189.249048 235.890826 
L 188.680969 237.963225 
L 188.080081 240.035624 
L 187.448147 242.108023 
L 186.787285 244.180422 
z
" style="fill:#656c84;fill-opacity:0.5;stroke:#ffffff;stroke-opacity:0.5;"/>
   </g>
   <g id="line2d_11">
    <path clip-path="url(#pb927ebfa0f)" d="M 93.3525 270.720185 
L 93.3525 315.991091 
" style="fill:none;stroke:#000000;stroke-linecap:round;stroke-width:2.5;"/>
   </g>
   <g id="line2d_12">
    <path clip-path="url(#pb927ebfa0f)" d="M 93.3525 219.654267 
L 93.3525 165.140746 
" style="fill:none;stroke:#000000;stroke-linecap:round;stroke-width:2.5;"/>
   </g>
   <g id="line2d_13">
    <path clip-path="url(#pb927ebfa0f)" d="M 84.211875 315.991091 
L 102.493125 315.991091 
" style="fill:none;stroke:#000000;stroke-linecap:round;stroke-width:2.5;"/>
   </g>
   <g id="line2d_14">
    <path clip-path="url(#pb927ebfa0f)" d="M 84.211875 165.140746 
L 102.493125 165.140746 
" style="fill:none;stroke:#000000;stroke-linecap:round;stroke-width:2.5;"/>
   </g>
   <g id="line2d_15">
    <path clip-path="url(#pb927ebfa0f)" d="M 166.4775 220.386553 
L 166.4775 244.180422 
" style="fill:none;stroke:#000000;stroke-linecap:round;stroke-width:2.5;"/>
   </g>
   <g id="line2d_16">
    <path clip-path="url(#pb927ebfa0f)" d="M 166.4775 136.398103 
L 166.4775 39.012909 
" style="fill:none;stroke:#000000;stroke-linecap:round;stroke-width:2.5;"/>
   </g>
   <g id="line2d_17">
    <path clip-path="url(#pb927ebfa0f)" d="M 157.336875 244.180422 
L 175.618125 244.180422 
" style="fill:none;stroke:#000000;stroke-linecap:round;stroke-width:2.5;"/>
   </g>
   <g id="line2d_18">
    <path clip-path="url(#pb927ebfa0f)" d="M 157.336875 39.012909 
L 175.618125 39.012909 
" style="fill:none;stroke:#000000;stroke-linecap:round;stroke-width:2.5;"/>
   </g>
   <g id="line2d_19">
    <path clip-path="url(#pb927ebfa0f)" d="M 56.79 254.131712 
L 129.915 254.131712 
L 203.04 254.131712 
" style="fill:none;stroke:#808080;stroke-dasharray:7.4,3.2;stroke-dashoffset:0;stroke-width:2;"/>
   </g>
   <g id="line2d_20">
    <path clip-path="url(#pb927ebfa0f)" d="M 56.79 329.84 
L 203.04 329.84 
" style="fill:none;stroke:#000000;stroke-linecap:round;stroke-width:3;"/>
   </g>
   <g id="line2d_21">
    <path clip-path="url(#pb927ebfa0f)" d="M 56.79 329.84 
L 56.79 25.164 
" style="fill:none;stroke:#000000;stroke-linecap:round;stroke-width:3;"/>
   </g>
   <g id="patch_3">
    <path clip-path="url(#pb927ebfa0f)" d="M 89.69625 270.720185 
L 97.00875 270.720185 
L 97.00875 219.654267 
L 89.69625 219.654267 
L 89.69625 270.720185 
z
" style="fill:#808080;stroke:#000000;stroke-linejoin:miter;stroke-width:2.5;"/>
   </g>
   <g id="patch_4">
    <path clip-path="url(#pb927ebfa0f)" d="M 162.82125 220.386553 
L 170.13375 220.386553 
L 170.13375 136.398103 
L 162.82125 136.398103 
L 162.82125 220.386553 
z
" style="fill:#808080;stroke:#000000;stroke-linejoin:miter;stroke-width:2.5;"/>
   </g>
   <g id="line2d_22">
    <path clip-path="url(#pb927ebfa0f)" d="M 89.69625 264.7952 
L 97.00875 264.7952 
" style="fill:none;stroke:#000000;stroke-linecap:round;stroke-width:4;"/>
   </g>
   <g id="line2d_23">
    <path clip-path="url(#pb927ebfa0f)" d="M 162.82125 183.665085 
L 170.13375 183.665085 
" style="fill:none;stroke:#000000;stroke-linecap:round;stroke-width:4;"/>
   </g>
   <g id="patch_5">
    <path d="M 56.79 329.84 
L 56.79 25.164 
" style="fill:none;stroke:#262626;stroke-linecap:square;stroke-linejoin:miter;stroke-width:1.25;"/>
   </g>
   <g id="patch_6">
    <path d="M 56.79 329.84 
L 203.04 329.84 
" style="fill:none;stroke:#262626;stroke-linecap:square;stroke-linejoin:miter;stroke-width:1.25;"/>
   </g>
   <g id="patch_7">
    <path d="M 166.4775 24.822787 
L 166.4775 19.513369 
L 93.3525 19.513369 
L 93.3525 24.822787 
" style="fill:none;stroke:#000000;stroke-linecap:round;stroke-width:2;"/>
   </g>
   <g id="text_9">
    <!-- **** -->
    <defs>
     <path d="M 24.03125 55.421875 
L 35.5 60.5 
L 38.8125 50.875 
L 26.609375 47.90625 
L 35.6875 37.5 
L 26.703125 31.59375 
L 19.578125 43.890625 
L 12.3125 31.59375 
L 3.21875 37.59375 
L 12.5 47.90625 
L 0.296875 50.875 
L 3.609375 60.5 
L 15.28125 55.421875 
L 14.40625 68.796875 
L 24.90625 68.796875 
z
" id="LiberationSans-Bold-42"/>
    </defs>
    <g style="fill:#262626;" transform="translate(120.57375 20.788714)scale(0.12 -0.12)">
     <use xlink:href="#LiberationSans-Bold-42"/>
     <use x="38.916016" xlink:href="#LiberationSans-Bold-42"/>
     <use x="77.832031" xlink:href="#LiberationSans-Bold-42"/>
     <use x="116.748047" xlink:href="#LiberationSans-Bold-42"/>
    </g>
   </g>
  </g>
 </g>
 <defs>
  <clipPath id="pb927ebfa0f">
   <rect height="304.676" width="146.25" x="56.79" y="25.164"/>
  </clipPath>
 </defs>
</svg>
