<?xml version="1.0" encoding="utf-8" standalone="no"?>
<!DOCTYPE svg PUBLIC "-//W3C//DTD SVG 1.1//EN"
  "http://www.w3.org/Graphics/SVG/1.1/DTD/svg11.dtd">
<!-- Created with matplotlib (https://matplotlib.org/) -->
<svg height="216pt" version="1.1" viewBox="0 0 576 216" width="576pt" xmlns="http://www.w3.org/2000/svg" xmlns:xlink="http://www.w3.org/1999/xlink">
 <defs>
  <style type="text/css">
*{stroke-linecap:butt;stroke-linejoin:round;}
  </style>
 </defs>
 <g id="figure_1">
  <g id="patch_1">
   <path d="M 0 216 
L 576 216 
L 576 0 
L 0 0 
z
" style="fill:#ffffff;"/>
  </g>
  <g id="axes_1">
   <g id="patch_2">
    <path d="M 56.79 165.06 
L 554.76 165.06 
L 554.76 14.522798 
L 56.79 14.522798 
z
" style="fill:#ffffff;"/>
   </g>
   <g id="matplotlib.axis_1">
    <g id="xtick_1">
     <g id="line2d_1">
      <defs>
       <path d="M 0 0 
L 0 6 
" id="m04656fe901" style="stroke:#262626;stroke-width:2;"/>
      </defs>
      <g>
       <use style="fill:#262626;stroke:#262626;stroke-width:2;" x="56.79" xlink:href="#m04656fe901" y="165.06"/>
      </g>
     </g>
     <g id="text_1">
      <!-- 0.0 -->
      <defs>
       <path d="M 51.703125 34.421875 
Q 51.703125 24.515625 49.828125 17.75 
Q 47.953125 10.984375 44.703125 6.8125 
Q 41.453125 2.640625 37.0625 0.828125 
Q 32.671875 -0.984375 27.6875 -0.984375 
Q 22.65625 -0.984375 18.3125 0.828125 
Q 13.96875 2.640625 10.765625 6.78125 
Q 7.5625 10.9375 5.734375 17.703125 
Q 3.90625 24.46875 3.90625 34.421875 
Q 3.90625 44.828125 5.734375 51.640625 
Q 7.5625 58.453125 10.78125 62.5 
Q 14.015625 66.546875 18.40625 68.1875 
Q 22.796875 69.828125 27.984375 69.828125 
Q 32.90625 69.828125 37.21875 68.1875 
Q 41.546875 66.546875 44.765625 62.5 
Q 48 58.453125 49.84375 51.640625 
Q 51.703125 44.828125 51.703125 34.421875 
z
M 42.78125 34.421875 
Q 42.78125 42.625 41.796875 48.0625 
Q 40.828125 53.515625 38.921875 56.765625 
Q 37.015625 60.015625 34.25 61.359375 
Q 31.5 62.703125 27.984375 62.703125 
Q 24.265625 62.703125 21.4375 61.328125 
Q 18.609375 59.96875 16.671875 56.71875 
Q 14.75 53.46875 13.765625 48.015625 
Q 12.796875 42.578125 12.796875 34.421875 
Q 12.796875 26.515625 13.796875 21.09375 
Q 14.796875 15.671875 16.71875 12.375 
Q 18.65625 9.078125 21.4375 7.640625 
Q 24.21875 6.203125 27.78125 6.203125 
Q 31.25 6.203125 34.03125 7.640625 
Q 36.8125 9.078125 38.734375 12.375 
Q 40.671875 15.671875 41.71875 21.09375 
Q 42.78125 26.515625 42.78125 34.421875 
z
" id="LiberationSans-48"/>
       <path d="M 9.125 0 
L 9.125 10.6875 
L 18.65625 10.6875 
L 18.65625 0 
z
" id="LiberationSans-46"/>
      </defs>
      <g style="fill:#262626;" transform="translate(48.45 183.25625)scale(0.12 -0.12)">
       <use xlink:href="#LiberationSans-48"/>
       <use x="55.615234" xlink:href="#LiberationSans-46"/>
       <use x="83.398438" xlink:href="#LiberationSans-48"/>
      </g>
     </g>
    </g>
    <g id="xtick_2">
     <g id="line2d_2">
      <g>
       <use style="fill:#262626;stroke:#262626;stroke-width:2;" x="156.384" xlink:href="#m04656fe901" y="165.06"/>
      </g>
     </g>
     <g id="text_2">
      <!-- 0.2 -->
      <defs>
       <path d="M 5.03125 0 
L 5.03125 6.203125 
Q 7.515625 11.921875 11.109375 16.28125 
Q 14.703125 20.65625 18.65625 24.1875 
Q 22.609375 27.734375 26.484375 30.765625 
Q 30.375 33.796875 33.5 36.8125 
Q 36.625 39.84375 38.546875 43.15625 
Q 40.484375 46.484375 40.484375 50.6875 
Q 40.484375 53.609375 39.59375 55.828125 
Q 38.71875 58.0625 37.0625 59.5625 
Q 35.40625 61.078125 33.078125 61.828125 
Q 30.765625 62.59375 27.9375 62.59375 
Q 25.296875 62.59375 22.96875 61.859375 
Q 20.65625 61.140625 18.84375 59.671875 
Q 17.046875 58.203125 15.890625 56.03125 
Q 14.75 53.859375 14.40625 50.984375 
L 5.421875 51.8125 
Q 5.859375 55.515625 7.46875 58.78125 
Q 9.078125 62.0625 11.90625 64.53125 
Q 14.75 67 18.71875 68.40625 
Q 22.703125 69.828125 27.9375 69.828125 
Q 33.0625 69.828125 37.0625 68.609375 
Q 41.0625 67.390625 43.8125 64.984375 
Q 46.578125 62.59375 48.046875 59.078125 
Q 49.515625 55.5625 49.515625 50.984375 
Q 49.515625 47.515625 48.265625 44.390625 
Q 47.015625 41.265625 44.9375 38.421875 
Q 42.875 35.59375 40.140625 32.953125 
Q 37.40625 30.328125 34.421875 27.8125 
Q 31.453125 25.296875 28.421875 22.828125 
Q 25.390625 20.359375 22.71875 17.859375 
Q 20.0625 15.375 17.96875 12.8125 
Q 15.875 10.25 14.703125 7.46875 
L 50.59375 7.46875 
L 50.59375 0 
z
" id="LiberationSans-50"/>
      </defs>
      <g style="fill:#262626;" transform="translate(148.044 183.25625)scale(0.12 -0.12)">
       <use xlink:href="#LiberationSans-48"/>
       <use x="55.615234" xlink:href="#LiberationSans-46"/>
       <use x="83.398438" xlink:href="#LiberationSans-50"/>
      </g>
     </g>
    </g>
    <g id="xtick_3">
     <g id="line2d_3">
      <g>
       <use style="fill:#262626;stroke:#262626;stroke-width:2;" x="255.978" xlink:href="#m04656fe901" y="165.06"/>
      </g>
     </g>
     <g id="text_3">
      <!-- 0.4 -->
      <defs>
       <path d="M 43.015625 15.578125 
L 43.015625 0 
L 34.71875 0 
L 34.71875 15.578125 
L 2.296875 15.578125 
L 2.296875 22.40625 
L 33.796875 68.796875 
L 43.015625 68.796875 
L 43.015625 22.515625 
L 52.6875 22.515625 
L 52.6875 15.578125 
z
M 34.71875 58.890625 
Q 34.625 58.640625 34.234375 57.9375 
Q 33.84375 57.234375 33.34375 56.34375 
Q 32.859375 55.46875 32.34375 54.5625 
Q 31.84375 53.65625 31.453125 53.078125 
L 13.8125 27.09375 
Q 13.578125 26.703125 13.109375 26.0625 
Q 12.640625 25.4375 12.15625 24.78125 
Q 11.671875 24.125 11.171875 23.484375 
Q 10.6875 22.859375 10.40625 22.515625 
L 34.71875 22.515625 
z
" id="LiberationSans-52"/>
      </defs>
      <g style="fill:#262626;" transform="translate(247.638 183.25625)scale(0.12 -0.12)">
       <use xlink:href="#LiberationSans-48"/>
       <use x="55.615234" xlink:href="#LiberationSans-46"/>
       <use x="83.398438" xlink:href="#LiberationSans-52"/>
      </g>
     </g>
    </g>
    <g id="xtick_4">
     <g id="line2d_4">
      <g>
       <use style="fill:#262626;stroke:#262626;stroke-width:2;" x="355.572" xlink:href="#m04656fe901" y="165.06"/>
      </g>
     </g>
     <g id="text_4">
      <!-- 0.6 -->
      <defs>
       <path d="M 51.21875 22.515625 
Q 51.21875 17.328125 49.78125 13 
Q 48.34375 8.6875 45.53125 5.578125 
Q 42.71875 2.484375 38.5625 0.75 
Q 34.421875 -0.984375 29 -0.984375 
Q 23 -0.984375 18.5 1.3125 
Q 14.015625 3.609375 11.03125 7.921875 
Q 8.0625 12.25 6.5625 18.53125 
Q 5.078125 24.8125 5.078125 32.8125 
Q 5.078125 42 6.765625 48.921875 
Q 8.453125 55.859375 11.625 60.5 
Q 14.796875 65.140625 19.359375 67.484375 
Q 23.921875 69.828125 29.6875 69.828125 
Q 33.203125 69.828125 36.28125 69.09375 
Q 39.359375 68.359375 41.875 66.71875 
Q 44.390625 65.09375 46.28125 62.40625 
Q 48.1875 59.71875 49.3125 55.8125 
L 40.921875 54.296875 
Q 39.546875 58.734375 36.546875 60.71875 
Q 33.546875 62.703125 29.59375 62.703125 
Q 25.984375 62.703125 23.046875 60.984375 
Q 20.125 59.28125 18.0625 55.875 
Q 16.015625 52.484375 14.90625 47.359375 
Q 13.8125 42.234375 13.8125 35.40625 
Q 16.21875 39.84375 20.5625 42.15625 
Q 24.90625 44.484375 30.515625 44.484375 
Q 35.203125 44.484375 39.015625 42.96875 
Q 42.828125 41.453125 45.53125 38.59375 
Q 48.25 35.75 49.734375 31.671875 
Q 51.21875 27.59375 51.21875 22.515625 
z
M 42.28125 22.125 
Q 42.28125 25.6875 41.40625 28.5625 
Q 40.53125 31.453125 38.765625 33.46875 
Q 37.015625 35.5 34.421875 36.59375 
Q 31.84375 37.703125 28.421875 37.703125 
Q 26.03125 37.703125 23.578125 36.984375 
Q 21.140625 36.28125 19.15625 34.6875 
Q 17.1875 33.109375 15.9375 30.515625 
Q 14.703125 27.9375 14.703125 24.21875 
Q 14.703125 20.40625 15.671875 17.109375 
Q 16.65625 13.8125 18.484375 11.375 
Q 20.3125 8.9375 22.890625 7.515625 
Q 25.484375 6.109375 28.71875 6.109375 
Q 31.890625 6.109375 34.40625 7.203125 
Q 36.921875 8.296875 38.671875 10.375 
Q 40.4375 12.453125 41.359375 15.421875 
Q 42.28125 18.40625 42.28125 22.125 
z
" id="LiberationSans-54"/>
      </defs>
      <g style="fill:#262626;" transform="translate(347.232 183.25625)scale(0.12 -0.12)">
       <use xlink:href="#LiberationSans-48"/>
       <use x="55.615234" xlink:href="#LiberationSans-46"/>
       <use x="83.398438" xlink:href="#LiberationSans-54"/>
      </g>
     </g>
    </g>
    <g id="xtick_5">
     <g id="line2d_5">
      <g>
       <use style="fill:#262626;stroke:#262626;stroke-width:2;" x="455.166" xlink:href="#m04656fe901" y="165.06"/>
      </g>
     </g>
     <g id="text_5">
      <!-- 0.8 -->
      <defs>
       <path d="M 51.265625 19.1875 
Q 51.265625 14.796875 49.875 11.109375 
Q 48.484375 7.421875 45.625 4.734375 
Q 42.78125 2.046875 38.328125 0.53125 
Q 33.890625 -0.984375 27.828125 -0.984375 
Q 21.78125 -0.984375 17.359375 0.53125 
Q 12.9375 2.046875 10.03125 4.703125 
Q 7.125 7.375 5.734375 11.0625 
Q 4.34375 14.75 4.34375 19.09375 
Q 4.34375 22.859375 5.484375 25.78125 
Q 6.640625 28.71875 8.5625 30.828125 
Q 10.5 32.953125 12.96875 34.25 
Q 15.4375 35.546875 18.0625 35.984375 
L 18.0625 36.1875 
Q 15.1875 36.859375 12.90625 38.375 
Q 10.640625 39.890625 9.09375 42.015625 
Q 7.5625 44.140625 6.75 46.71875 
Q 5.953125 49.3125 5.953125 52.203125 
Q 5.953125 55.8125 7.34375 59 
Q 8.734375 62.203125 11.46875 64.625 
Q 14.203125 67.046875 18.25 68.4375 
Q 22.3125 69.828125 27.640625 69.828125 
Q 33.25 69.828125 37.375 68.40625 
Q 41.5 67 44.203125 64.578125 
Q 46.921875 62.15625 48.234375 58.9375 
Q 49.5625 55.71875 49.5625 52.09375 
Q 49.5625 49.265625 48.75 46.671875 
Q 47.953125 44.09375 46.40625 41.96875 
Q 44.875 39.84375 42.59375 38.34375 
Q 40.328125 36.859375 37.359375 36.28125 
L 37.359375 36.078125 
Q 40.328125 35.59375 42.859375 34.296875 
Q 45.40625 33.015625 47.265625 30.890625 
Q 49.125 28.765625 50.1875 25.828125 
Q 51.265625 22.90625 51.265625 19.1875 
z
M 40.4375 51.609375 
Q 40.4375 54.203125 39.765625 56.34375 
Q 39.109375 58.5 37.59375 60.03125 
Q 36.078125 61.578125 33.640625 62.421875 
Q 31.203125 63.28125 27.640625 63.28125 
Q 24.171875 63.28125 21.78125 62.421875 
Q 19.390625 61.578125 17.84375 60.03125 
Q 16.3125 58.5 15.625 56.34375 
Q 14.9375 54.203125 14.9375 51.609375 
Q 14.9375 49.5625 15.46875 47.40625 
Q 16.015625 45.265625 17.421875 43.5 
Q 18.84375 41.75 21.328125 40.625 
Q 23.828125 39.5 27.734375 39.5 
Q 31.890625 39.5 34.40625 40.625 
Q 36.921875 41.75 38.25 43.5 
Q 39.59375 45.265625 40.015625 47.40625 
Q 40.4375 49.5625 40.4375 51.609375 
z
M 42.140625 20.015625 
Q 42.140625 22.515625 41.453125 24.828125 
Q 40.765625 27.15625 39.109375 28.9375 
Q 37.453125 30.71875 34.640625 31.8125 
Q 31.84375 32.90625 27.640625 32.90625 
Q 23.78125 32.90625 21.0625 31.8125 
Q 18.359375 30.71875 16.671875 28.90625 
Q 14.984375 27.09375 14.203125 24.71875 
Q 13.421875 22.359375 13.421875 19.828125 
Q 13.421875 16.65625 14.203125 14.03125 
Q 14.984375 11.421875 16.6875 9.546875 
Q 18.40625 7.671875 21.1875 6.640625 
Q 23.96875 5.609375 27.9375 5.609375 
Q 31.9375 5.609375 34.671875 6.640625 
Q 37.40625 7.671875 39.0625 9.546875 
Q 40.71875 11.421875 41.421875 14.078125 
Q 42.140625 16.75 42.140625 20.015625 
z
" id="LiberationSans-56"/>
      </defs>
      <g style="fill:#262626;" transform="translate(446.826 183.25625)scale(0.12 -0.12)">
       <use xlink:href="#LiberationSans-48"/>
       <use x="55.615234" xlink:href="#LiberationSans-46"/>
       <use x="83.398438" xlink:href="#LiberationSans-56"/>
      </g>
     </g>
    </g>
    <g id="xtick_6">
     <g id="line2d_6">
      <g>
       <use style="fill:#262626;stroke:#262626;stroke-width:2;" x="554.76" xlink:href="#m04656fe901" y="165.06"/>
      </g>
     </g>
     <g id="text_6">
      <!-- 1.0 -->
      <defs>
       <path d="M 7.625 0 
L 7.625 7.46875 
L 25.140625 7.46875 
L 25.140625 60.40625 
L 9.625 49.3125 
L 9.625 57.625 
L 25.875 68.796875 
L 33.984375 68.796875 
L 33.984375 7.46875 
L 50.734375 7.46875 
L 50.734375 0 
z
" id="LiberationSans-49"/>
      </defs>
      <g style="fill:#262626;" transform="translate(546.42 183.25625)scale(0.12 -0.12)">
       <use xlink:href="#LiberationSans-49"/>
       <use x="55.615234" xlink:href="#LiberationSans-46"/>
       <use x="83.398438" xlink:href="#LiberationSans-48"/>
      </g>
     </g>
    </g>
    <g id="text_7">
     <!-- Relative Position of Cell -->
     <defs>
      <path d="M 56.84375 0 
L 38.96875 28.5625 
L 17.53125 28.5625 
L 17.53125 0 
L 8.203125 0 
L 8.203125 68.796875 
L 40.578125 68.796875 
Q 46.4375 68.796875 50.953125 67.453125 
Q 55.46875 66.109375 58.546875 63.5625 
Q 61.625 61.03125 63.234375 57.375 
Q 64.84375 53.71875 64.84375 49.125 
Q 64.84375 45.84375 63.890625 42.671875 
Q 62.9375 39.5 60.890625 36.859375 
Q 58.84375 34.234375 55.65625 32.328125 
Q 52.484375 30.421875 48.046875 29.640625 
L 67.578125 0 
z
M 55.46875 49.03125 
Q 55.46875 52.15625 54.390625 54.4375 
Q 53.328125 56.734375 51.265625 58.265625 
Q 49.21875 59.8125 46.28125 60.5625 
Q 43.359375 61.328125 39.65625 61.328125 
L 17.53125 61.328125 
L 17.53125 35.9375 
L 40.046875 35.9375 
Q 44.046875 35.9375 46.96875 36.9375 
Q 49.90625 37.9375 51.78125 39.6875 
Q 53.65625 41.453125 54.5625 43.84375 
Q 55.46875 46.234375 55.46875 49.03125 
z
" id="LiberationSans-82"/>
      <path d="M 13.484375 24.5625 
Q 13.484375 20.40625 14.328125 16.90625 
Q 15.1875 13.421875 16.96875 10.90625 
Q 18.75 8.40625 21.53125 7 
Q 24.3125 5.609375 28.21875 5.609375 
Q 33.9375 5.609375 37.375 7.90625 
Q 40.828125 10.203125 42.046875 13.71875 
L 49.75 11.53125 
Q 48.921875 9.328125 47.4375 7.109375 
Q 45.953125 4.890625 43.453125 3.09375 
Q 40.96875 1.3125 37.234375 0.15625 
Q 33.5 -0.984375 28.21875 -0.984375 
Q 16.5 -0.984375 10.375 6 
Q 4.25 12.984375 4.25 26.765625 
Q 4.25 34.1875 6.09375 39.328125 
Q 7.953125 44.484375 11.171875 47.703125 
Q 14.40625 50.921875 18.703125 52.359375 
Q 23 53.8125 27.875 53.8125 
Q 34.515625 53.8125 38.984375 51.65625 
Q 43.453125 49.515625 46.15625 45.71875 
Q 48.875 41.9375 50.015625 36.8125 
Q 51.171875 31.6875 51.171875 25.734375 
L 51.171875 24.5625 
z
M 42.09375 31.296875 
Q 41.359375 39.65625 37.84375 43.484375 
Q 34.328125 47.3125 27.734375 47.3125 
Q 25.53125 47.3125 23.109375 46.609375 
Q 20.703125 45.90625 18.65625 44.09375 
Q 16.609375 42.28125 15.1875 39.171875 
Q 13.765625 36.078125 13.578125 31.296875 
z
" id="LiberationSans-101"/>
      <path d="M 6.734375 0 
L 6.734375 72.46875 
L 15.53125 72.46875 
L 15.53125 0 
z
" id="LiberationSans-108"/>
      <path d="M 20.21875 -0.984375 
Q 12.25 -0.984375 8.25 3.21875 
Q 4.25 7.421875 4.25 14.75 
Q 4.25 19.96875 6.21875 23.3125 
Q 8.203125 26.65625 11.390625 28.5625 
Q 14.59375 30.46875 18.6875 31.203125 
Q 22.796875 31.9375 27.046875 32.03125 
L 38.921875 32.234375 
L 38.921875 35.109375 
Q 38.921875 38.375 38.234375 40.671875 
Q 37.546875 42.96875 36.125 44.375 
Q 34.71875 45.796875 32.59375 46.453125 
Q 30.46875 47.125 27.59375 47.125 
Q 25.046875 47.125 23 46.75 
Q 20.953125 46.390625 19.4375 45.4375 
Q 17.921875 44.484375 16.984375 42.84375 
Q 16.0625 41.21875 15.765625 38.71875 
L 6.59375 39.546875 
Q 7.078125 42.671875 8.4375 45.28125 
Q 9.8125 47.90625 12.328125 49.796875 
Q 14.84375 51.703125 18.625 52.75 
Q 22.40625 53.8125 27.78125 53.8125 
Q 37.75 53.8125 42.765625 49.234375 
Q 47.796875 44.671875 47.796875 36.03125 
L 47.796875 13.28125 
Q 47.796875 9.375 48.828125 7.390625 
Q 49.859375 5.421875 52.734375 5.421875 
Q 53.46875 5.421875 54.203125 5.515625 
Q 54.9375 5.609375 55.609375 5.765625 
L 55.609375 0.296875 
Q 53.953125 -0.09375 52.3125 -0.28125 
Q 50.6875 -0.484375 48.828125 -0.484375 
Q 46.34375 -0.484375 44.5625 0.171875 
Q 42.78125 0.828125 41.65625 2.171875 
Q 40.53125 3.515625 39.9375 5.484375 
Q 39.359375 7.46875 39.203125 10.109375 
L 38.921875 10.109375 
Q 37.5 7.5625 35.8125 5.515625 
Q 34.125 3.46875 31.875 2.03125 
Q 29.640625 0.59375 26.78125 -0.1875 
Q 23.921875 -0.984375 20.21875 -0.984375 
z
M 22.21875 5.609375 
Q 26.421875 5.609375 29.5625 7.140625 
Q 32.71875 8.6875 34.78125 11.078125 
Q 36.859375 13.484375 37.890625 16.3125 
Q 38.921875 19.140625 38.921875 21.734375 
L 38.921875 26.078125 
L 29.296875 25.875 
Q 26.078125 25.828125 23.171875 25.40625 
Q 20.265625 25 18.0625 23.78125 
Q 15.875 22.5625 14.578125 20.359375 
Q 13.28125 18.171875 13.28125 14.59375 
Q 13.28125 10.296875 15.59375 7.953125 
Q 17.921875 5.609375 22.21875 5.609375 
z
" id="LiberationSans-97"/>
      <path d="M 27.046875 0.390625 
Q 25.046875 -0.140625 22.96875 -0.453125 
Q 20.90625 -0.78125 18.171875 -0.78125 
Q 7.625 -0.78125 7.625 11.1875 
L 7.625 46.4375 
L 1.515625 46.4375 
L 1.515625 52.828125 
L 7.953125 52.828125 
L 10.546875 64.65625 
L 16.40625 64.65625 
L 16.40625 52.828125 
L 26.171875 52.828125 
L 26.171875 46.4375 
L 16.40625 46.4375 
L 16.40625 13.09375 
Q 16.40625 9.28125 17.640625 7.734375 
Q 18.890625 6.203125 21.96875 6.203125 
Q 23.25 6.203125 24.4375 6.390625 
Q 25.640625 6.59375 27.046875 6.890625 
z
" id="LiberationSans-116"/>
      <path d="M 6.6875 64.0625 
L 6.6875 72.46875 
L 15.484375 72.46875 
L 15.484375 64.0625 
z
M 6.6875 0 
L 6.6875 52.828125 
L 15.484375 52.828125 
L 15.484375 0 
z
" id="LiberationSans-105"/>
      <path d="M 29.9375 0 
L 19.53125 0 
L 0.34375 52.828125 
L 9.71875 52.828125 
L 21.34375 18.453125 
Q 21.6875 17.390625 22.140625 15.84375 
Q 22.609375 14.3125 23.09375 12.640625 
Q 23.578125 10.984375 24 9.4375 
Q 24.421875 7.90625 24.703125 6.890625 
Q 25 7.90625 25.453125 9.4375 
Q 25.921875 10.984375 26.40625 12.59375 
Q 26.90625 14.203125 27.421875 15.734375 
Q 27.9375 17.28125 28.328125 18.359375 
L 40.328125 52.828125 
L 49.65625 52.828125 
z
" id="LiberationSans-118"/>
      <path id="LiberationSans-32"/>
      <path d="M 61.421875 48.09375 
Q 61.421875 43.609375 59.9375 39.71875 
Q 58.453125 35.84375 55.5 32.984375 
Q 52.546875 30.125 48.09375 28.46875 
Q 43.65625 26.8125 37.75 26.8125 
L 17.53125 26.8125 
L 17.53125 0 
L 8.203125 0 
L 8.203125 68.796875 
L 37.15625 68.796875 
Q 43.265625 68.796875 47.796875 67.3125 
Q 52.34375 65.828125 55.375 63.109375 
Q 58.40625 60.40625 59.90625 56.5625 
Q 61.421875 52.734375 61.421875 48.09375 
z
M 52.046875 48 
Q 52.046875 54.546875 48.046875 57.9375 
Q 44.046875 61.328125 36.03125 61.328125 
L 17.53125 61.328125 
L 17.53125 34.1875 
L 36.421875 34.1875 
Q 44.484375 34.1875 48.265625 37.75 
Q 52.046875 41.3125 52.046875 48 
z
" id="LiberationSans-80"/>
      <path d="M 51.421875 26.46875 
Q 51.421875 12.59375 45.3125 5.796875 
Q 39.203125 -0.984375 27.59375 -0.984375 
Q 22.078125 -0.984375 17.71875 0.671875 
Q 13.375 2.34375 10.375 5.765625 
Q 7.375 9.1875 5.78125 14.328125 
Q 4.203125 19.484375 4.203125 26.46875 
Q 4.203125 53.8125 27.875 53.8125 
Q 34.03125 53.8125 38.5 52.09375 
Q 42.96875 50.390625 45.828125 46.96875 
Q 48.6875 43.5625 50.046875 38.421875 
Q 51.421875 33.296875 51.421875 26.46875 
z
M 42.1875 26.46875 
Q 42.1875 32.625 41.234375 36.625 
Q 40.28125 40.625 38.453125 43.015625 
Q 36.625 45.40625 33.984375 46.359375 
Q 31.34375 47.3125 28.03125 47.3125 
Q 24.65625 47.3125 21.9375 46.3125 
Q 19.234375 45.3125 17.328125 42.890625 
Q 15.4375 40.484375 14.421875 36.46875 
Q 13.421875 32.46875 13.421875 26.46875 
Q 13.421875 20.3125 14.5 16.28125 
Q 15.578125 12.25 17.453125 9.859375 
Q 19.34375 7.46875 21.90625 6.484375 
Q 24.46875 5.515625 27.484375 5.515625 
Q 30.859375 5.515625 33.59375 6.46875 
Q 36.328125 7.421875 38.234375 9.8125 
Q 40.140625 12.203125 41.15625 16.25 
Q 42.1875 20.3125 42.1875 26.46875 
z
" id="LiberationSans-111"/>
      <path d="M 46.390625 14.59375 
Q 46.390625 10.890625 44.9375 7.984375 
Q 43.5 5.078125 40.765625 3.09375 
Q 38.03125 1.125 34.046875 0.0625 
Q 30.078125 -0.984375 24.953125 -0.984375 
Q 20.359375 -0.984375 16.671875 -0.265625 
Q 12.984375 0.4375 10.203125 2 
Q 7.421875 3.5625 5.53125 6.125 
Q 3.65625 8.6875 2.78125 12.40625 
L 10.546875 13.921875 
Q 11.671875 9.671875 15.1875 7.6875 
Q 18.703125 5.71875 24.953125 5.71875 
Q 27.78125 5.71875 30.140625 6.109375 
Q 32.515625 6.5 34.21875 7.453125 
Q 35.9375 8.40625 36.890625 9.984375 
Q 37.84375 11.578125 37.84375 13.921875 
Q 37.84375 16.3125 36.71875 17.84375 
Q 35.59375 19.390625 33.59375 20.40625 
Q 31.59375 21.4375 28.734375 22.1875 
Q 25.875 22.953125 22.46875 23.875 
Q 19.28125 24.703125 16.15625 25.734375 
Q 13.03125 26.765625 10.515625 28.4375 
Q 8.015625 30.125 6.453125 32.609375 
Q 4.890625 35.109375 4.890625 38.875 
Q 4.890625 46.09375 10.03125 49.875 
Q 15.1875 53.65625 25.046875 53.65625 
Q 33.796875 53.65625 38.9375 50.578125 
Q 44.09375 47.515625 45.453125 40.71875 
L 37.546875 39.75 
Q 37.109375 41.796875 35.9375 43.1875 
Q 34.765625 44.578125 33.109375 45.4375 
Q 31.453125 46.296875 29.375 46.65625 
Q 27.296875 47.015625 25.046875 47.015625 
Q 19.09375 47.015625 16.25 45.203125 
Q 13.421875 43.40625 13.421875 39.75 
Q 13.421875 37.59375 14.46875 36.203125 
Q 15.53125 34.8125 17.40625 33.859375 
Q 19.28125 32.90625 21.921875 32.203125 
Q 24.5625 31.5 27.734375 30.71875 
Q 29.828125 30.171875 32.03125 29.5625 
Q 34.234375 28.953125 36.296875 28.09375 
Q 38.375 27.25 40.203125 26.09375 
Q 42.046875 24.953125 43.40625 23.34375 
Q 44.78125 21.734375 45.578125 19.578125 
Q 46.390625 17.4375 46.390625 14.59375 
z
" id="LiberationSans-115"/>
      <path d="M 40.28125 0 
L 40.28125 33.5 
Q 40.28125 37.359375 39.71875 39.9375 
Q 39.15625 42.53125 37.890625 44.109375 
Q 36.625 45.703125 34.546875 46.359375 
Q 32.46875 47.015625 29.390625 47.015625 
Q 26.265625 47.015625 23.75 45.921875 
Q 21.234375 44.828125 19.453125 42.75 
Q 17.671875 40.671875 16.6875 37.625 
Q 15.71875 34.578125 15.71875 30.609375 
L 15.71875 0 
L 6.9375 0 
L 6.9375 41.546875 
Q 6.9375 43.21875 6.90625 45.046875 
Q 6.890625 46.875 6.828125 48.5 
Q 6.78125 50.140625 6.734375 51.3125 
Q 6.6875 52.484375 6.640625 52.828125 
L 14.9375 52.828125 
Q 14.984375 52.59375 15.03125 51.515625 
Q 15.09375 50.4375 15.15625 49.046875 
Q 15.234375 47.65625 15.28125 46.21875 
Q 15.328125 44.78125 15.328125 43.796875 
L 15.484375 43.796875 
Q 16.75 46.09375 18.265625 47.953125 
Q 19.78125 49.8125 21.78125 51.09375 
Q 23.78125 52.390625 26.359375 53.09375 
Q 28.953125 53.8125 32.375 53.8125 
Q 36.765625 53.8125 39.9375 52.734375 
Q 43.109375 51.65625 45.15625 49.40625 
Q 47.21875 47.171875 48.171875 43.625 
Q 49.125 40.09375 49.125 35.203125 
L 49.125 0 
z
" id="LiberationSans-110"/>
      <path d="M 17.625 46.4375 
L 17.625 0 
L 8.84375 0 
L 8.84375 46.4375 
L 1.421875 46.4375 
L 1.421875 52.828125 
L 8.84375 52.828125 
L 8.84375 58.796875 
Q 8.84375 61.671875 9.375 64.140625 
Q 9.90625 66.609375 11.34375 68.4375 
Q 12.796875 70.265625 15.28125 71.3125 
Q 17.78125 72.359375 21.734375 72.359375 
Q 23.296875 72.359375 24.96875 72.21875 
Q 26.65625 72.078125 27.9375 71.78125 
L 27.9375 65.09375 
Q 27.09375 65.234375 26 65.359375 
Q 24.90625 65.484375 24.03125 65.484375 
Q 22.078125 65.484375 20.828125 64.9375 
Q 19.578125 64.40625 18.875 63.40625 
Q 18.171875 62.40625 17.890625 60.9375 
Q 17.625 59.46875 17.625 57.5625 
L 17.625 52.828125 
L 27.9375 52.828125 
L 27.9375 46.4375 
z
" id="LiberationSans-102"/>
      <path d="M 38.671875 62.203125 
Q 32.8125 62.203125 28.296875 60.25 
Q 23.78125 58.296875 20.71875 54.6875 
Q 17.671875 51.078125 16.109375 46 
Q 14.546875 40.921875 14.546875 34.71875 
Q 14.546875 28.515625 16.234375 23.359375 
Q 17.921875 18.21875 21.0625 14.5 
Q 24.21875 10.796875 28.78125 8.734375 
Q 33.34375 6.6875 39.0625 6.6875 
Q 43.0625 6.6875 46.359375 7.734375 
Q 49.65625 8.796875 52.3125 10.6875 
Q 54.984375 12.59375 57.078125 15.203125 
Q 59.1875 17.828125 60.796875 21 
L 68.40625 17.1875 
Q 66.546875 13.328125 63.8125 10 
Q 61.078125 6.6875 57.390625 4.25 
Q 53.71875 1.8125 49.046875 0.40625 
Q 44.390625 -0.984375 38.625 -0.984375 
Q 30.28125 -0.984375 24 1.671875 
Q 17.71875 4.34375 13.5 9.109375 
Q 9.28125 13.875 7.171875 20.40625 
Q 5.078125 26.953125 5.078125 34.71875 
Q 5.078125 42.78125 7.296875 49.265625 
Q 9.515625 55.765625 13.78125 60.328125 
Q 18.0625 64.890625 24.3125 67.359375 
Q 30.5625 69.828125 38.578125 69.828125 
Q 49.5625 69.828125 56.9375 65.53125 
Q 64.3125 61.234375 67.78125 52.78125 
L 58.9375 49.859375 
Q 57.953125 52.296875 56.296875 54.515625 
Q 54.640625 56.734375 52.140625 58.4375 
Q 49.65625 60.15625 46.3125 61.171875 
Q 42.96875 62.203125 38.671875 62.203125 
z
" id="LiberationSans-67"/>
     </defs>
     <g style="fill:#262626;" transform="translate(231.853906 199.891875)scale(0.14 -0.14)">
      <use xlink:href="#LiberationSans-82"/>
      <use x="72.216797" xlink:href="#LiberationSans-101"/>
      <use x="127.832031" xlink:href="#LiberationSans-108"/>
      <use x="150.048828" xlink:href="#LiberationSans-97"/>
      <use x="205.664062" xlink:href="#LiberationSans-116"/>
      <use x="233.447266" xlink:href="#LiberationSans-105"/>
      <use x="255.664062" xlink:href="#LiberationSans-118"/>
      <use x="305.664062" xlink:href="#LiberationSans-101"/>
      <use x="361.279297" xlink:href="#LiberationSans-32"/>
      <use x="389.0625" xlink:href="#LiberationSans-80"/>
      <use x="455.761719" xlink:href="#LiberationSans-111"/>
      <use x="511.376953" xlink:href="#LiberationSans-115"/>
      <use x="561.376953" xlink:href="#LiberationSans-105"/>
      <use x="583.59375" xlink:href="#LiberationSans-116"/>
      <use x="611.376953" xlink:href="#LiberationSans-105"/>
      <use x="633.59375" xlink:href="#LiberationSans-111"/>
      <use x="689.208984" xlink:href="#LiberationSans-110"/>
      <use x="744.824219" xlink:href="#LiberationSans-32"/>
      <use x="772.607422" xlink:href="#LiberationSans-111"/>
      <use x="828.222656" xlink:href="#LiberationSans-102"/>
      <use x="856.005859" xlink:href="#LiberationSans-32"/>
      <use x="883.789062" xlink:href="#LiberationSans-67"/>
      <use x="956.005859" xlink:href="#LiberationSans-101"/>
      <use x="1011.621094" xlink:href="#LiberationSans-108"/>
      <use x="1033.837891" xlink:href="#LiberationSans-108"/>
     </g>
    </g>
   </g>
   <g id="matplotlib.axis_2">
    <g id="ytick_1">
     <g id="line2d_7">
      <defs>
       <path d="M 0 0 
L -6 0 
" id="mfcfc4bf225" style="stroke:#262626;stroke-width:2;"/>
      </defs>
      <g>
       <use style="fill:#262626;stroke:#262626;stroke-width:2;" x="56.79" xlink:href="#mfcfc4bf225" y="165.06"/>
      </g>
     </g>
     <g id="text_8">
      <!-- 0.0 -->
      <g style="fill:#262626;" transform="translate(30.61 169.408125)scale(0.12 -0.12)">
       <use xlink:href="#LiberationSans-48"/>
       <use x="55.615234" xlink:href="#LiberationSans-46"/>
       <use x="83.398438" xlink:href="#LiberationSans-48"/>
      </g>
     </g>
    </g>
    <g id="ytick_2">
     <g id="line2d_8">
      <g>
       <use style="fill:#262626;stroke:#262626;stroke-width:2;" x="56.79" xlink:href="#mfcfc4bf225" y="128.049589"/>
      </g>
     </g>
     <g id="text_9">
      <!-- 0.5 -->
      <defs>
       <path d="M 51.421875 22.40625 
Q 51.421875 17.234375 49.859375 12.9375 
Q 48.296875 8.640625 45.21875 5.53125 
Q 42.140625 2.4375 37.578125 0.71875 
Q 33.015625 -0.984375 27 -0.984375 
Q 21.578125 -0.984375 17.546875 0.28125 
Q 13.53125 1.5625 10.734375 3.78125 
Q 7.953125 6 6.3125 8.984375 
Q 4.6875 11.96875 4 15.375 
L 12.890625 16.40625 
Q 13.421875 14.453125 14.390625 12.625 
Q 15.375 10.796875 17.0625 9.34375 
Q 18.75 7.90625 21.21875 7.046875 
Q 23.6875 6.203125 27.203125 6.203125 
Q 30.609375 6.203125 33.390625 7.25 
Q 36.1875 8.296875 38.15625 10.34375 
Q 40.140625 12.40625 41.203125 15.375 
Q 42.28125 18.359375 42.28125 22.21875 
Q 42.28125 25.390625 41.25 28.046875 
Q 40.234375 30.71875 38.328125 32.640625 
Q 36.421875 34.578125 33.65625 35.640625 
Q 30.90625 36.71875 27.390625 36.71875 
Q 25.203125 36.71875 23.34375 36.328125 
Q 21.484375 35.9375 19.890625 35.25 
Q 18.3125 34.578125 17.015625 33.671875 
Q 15.71875 32.765625 14.59375 31.78125 
L 6 31.78125 
L 8.296875 68.796875 
L 47.40625 68.796875 
L 47.40625 61.328125 
L 16.3125 61.328125 
L 14.984375 39.5 
Q 17.328125 41.3125 20.84375 42.59375 
Q 24.359375 43.890625 29.203125 43.890625 
Q 34.328125 43.890625 38.421875 42.328125 
Q 42.53125 40.765625 45.40625 37.90625 
Q 48.296875 35.0625 49.859375 31.109375 
Q 51.421875 27.15625 51.421875 22.40625 
z
" id="LiberationSans-53"/>
      </defs>
      <g style="fill:#262626;" transform="translate(30.61 132.397714)scale(0.12 -0.12)">
       <use xlink:href="#LiberationSans-48"/>
       <use x="55.615234" xlink:href="#LiberationSans-46"/>
       <use x="83.398438" xlink:href="#LiberationSans-53"/>
      </g>
     </g>
    </g>
    <g id="ytick_3">
     <g id="line2d_9">
      <g>
       <use style="fill:#262626;stroke:#262626;stroke-width:2;" x="56.79" xlink:href="#mfcfc4bf225" y="91.039179"/>
      </g>
     </g>
     <g id="text_10">
      <!-- 1.0 -->
      <g style="fill:#262626;" transform="translate(30.61 95.387304)scale(0.12 -0.12)">
       <use xlink:href="#LiberationSans-49"/>
       <use x="55.615234" xlink:href="#LiberationSans-46"/>
       <use x="83.398438" xlink:href="#LiberationSans-48"/>
      </g>
     </g>
    </g>
    <g id="ytick_4">
     <g id="line2d_10">
      <g>
       <use style="fill:#262626;stroke:#262626;stroke-width:2;" x="56.79" xlink:href="#mfcfc4bf225" y="54.028768"/>
      </g>
     </g>
     <g id="text_11">
      <!-- 1.5 -->
      <g style="fill:#262626;" transform="translate(30.61 58.376893)scale(0.12 -0.12)">
       <use xlink:href="#LiberationSans-49"/>
       <use x="55.615234" xlink:href="#LiberationSans-46"/>
       <use x="83.398438" xlink:href="#LiberationSans-53"/>
      </g>
     </g>
    </g>
    <g id="ytick_5">
     <g id="line2d_11">
      <g>
       <use style="fill:#262626;stroke:#262626;stroke-width:2;" x="56.79" xlink:href="#mfcfc4bf225" y="17.018358"/>
      </g>
     </g>
     <g id="text_12">
      <!-- 2.0 -->
      <g style="fill:#262626;" transform="translate(30.61 21.366483)scale(0.12 -0.12)">
       <use xlink:href="#LiberationSans-50"/>
       <use x="55.615234" xlink:href="#LiberationSans-46"/>
       <use x="83.398438" xlink:href="#LiberationSans-48"/>
      </g>
     </g>
    </g>
    <g id="text_13">
     <!-- Normalized Intensity -->
     <defs>
      <path d="M 52.828125 0 
L 16.015625 58.59375 
Q 16.109375 56.203125 16.265625 53.859375 
Q 16.359375 51.859375 16.421875 49.625 
Q 16.5 47.40625 16.5 45.703125 
L 16.5 0 
L 8.203125 0 
L 8.203125 68.796875 
L 19.046875 68.796875 
L 56.25 9.8125 
Q 56.109375 12.203125 55.953125 14.59375 
Q 55.859375 16.65625 55.765625 19.0625 
Q 55.671875 21.484375 55.671875 23.6875 
L 55.671875 68.796875 
L 64.0625 68.796875 
L 64.0625 0 
z
" id="LiberationSans-78"/>
      <path d="M 6.9375 0 
L 6.9375 40.53125 
Q 6.9375 42.1875 6.90625 43.921875 
Q 6.890625 45.65625 6.828125 47.265625 
Q 6.78125 48.875 6.734375 50.28125 
Q 6.6875 51.703125 6.640625 52.828125 
L 14.9375 52.828125 
Q 14.984375 51.703125 15.0625 50.265625 
Q 15.140625 48.828125 15.203125 47.3125 
Q 15.28125 45.796875 15.296875 44.40625 
Q 15.328125 43.015625 15.328125 42.046875 
L 15.53125 42.046875 
Q 16.453125 45.0625 17.5 47.28125 
Q 18.5625 49.515625 19.96875 50.953125 
Q 21.390625 52.390625 23.34375 53.09375 
Q 25.296875 53.8125 28.078125 53.8125 
Q 29.15625 53.8125 30.125 53.640625 
Q 31.109375 53.46875 31.640625 53.328125 
L 31.640625 45.265625 
Q 30.765625 45.515625 29.59375 45.625 
Q 28.421875 45.75 26.953125 45.75 
Q 23.921875 45.75 21.796875 44.375 
Q 19.671875 43.015625 18.328125 40.59375 
Q 17 38.1875 16.359375 34.84375 
Q 15.71875 31.5 15.71875 27.546875 
L 15.71875 0 
z
" id="LiberationSans-114"/>
      <path d="M 37.5 0 
L 37.5 33.5 
Q 37.5 37.359375 37.015625 39.9375 
Q 36.53125 42.53125 35.375 44.109375 
Q 34.234375 45.703125 32.375 46.359375 
Q 30.515625 47.015625 27.828125 47.015625 
Q 25.046875 47.015625 22.796875 45.921875 
Q 20.5625 44.828125 18.96875 42.75 
Q 17.390625 40.671875 16.53125 37.625 
Q 15.671875 34.578125 15.671875 30.609375 
L 15.671875 0 
L 6.9375 0 
L 6.9375 41.546875 
Q 6.9375 43.21875 6.90625 45.046875 
Q 6.890625 46.875 6.828125 48.5 
Q 6.78125 50.140625 6.734375 51.3125 
Q 6.6875 52.484375 6.640625 52.828125 
L 14.9375 52.828125 
Q 14.984375 52.59375 15.03125 51.515625 
Q 15.09375 50.4375 15.15625 49.046875 
Q 15.234375 47.65625 15.28125 46.21875 
Q 15.328125 44.78125 15.328125 43.796875 
L 15.484375 43.796875 
Q 16.65625 46.09375 18.015625 47.953125 
Q 19.390625 49.8125 21.21875 51.09375 
Q 23.046875 52.390625 25.40625 53.09375 
Q 27.78125 53.8125 30.90625 53.8125 
Q 36.921875 53.8125 40.40625 51.421875 
Q 43.890625 49.03125 45.265625 43.796875 
L 45.40625 43.796875 
Q 46.578125 46.09375 48.046875 47.953125 
Q 49.515625 49.8125 51.46875 51.09375 
Q 53.421875 52.390625 55.859375 53.09375 
Q 58.296875 53.8125 61.421875 53.8125 
Q 65.4375 53.8125 68.328125 52.734375 
Q 71.234375 51.65625 73.09375 49.40625 
Q 74.953125 47.171875 75.828125 43.625 
Q 76.703125 40.09375 76.703125 35.203125 
L 76.703125 0 
L 68.015625 0 
L 68.015625 33.5 
Q 68.015625 37.359375 67.53125 39.9375 
Q 67.046875 42.53125 65.890625 44.109375 
Q 64.75 45.703125 62.890625 46.359375 
Q 61.03125 47.015625 58.34375 47.015625 
Q 55.5625 47.015625 53.3125 45.96875 
Q 51.078125 44.921875 49.484375 42.875 
Q 47.90625 40.828125 47.046875 37.75 
Q 46.1875 34.671875 46.1875 30.609375 
L 46.1875 0 
z
" id="LiberationSans-109"/>
      <path d="M 2.390625 0 
L 2.390625 6.6875 
L 34.671875 46.046875 
L 4.34375 46.046875 
L 4.34375 52.828125 
L 44.578125 52.828125 
L 44.578125 46.140625 
L 12.25 6.78125 
L 46.390625 6.78125 
L 46.390625 0 
z
" id="LiberationSans-122"/>
      <path d="M 40.09375 8.5 
Q 37.640625 3.421875 33.609375 1.21875 
Q 29.59375 -0.984375 23.640625 -0.984375 
Q 13.625 -0.984375 8.90625 5.75 
Q 4.203125 12.5 4.203125 26.171875 
Q 4.203125 53.8125 23.640625 53.8125 
Q 29.640625 53.8125 33.640625 51.609375 
Q 37.640625 49.421875 40.09375 44.625 
L 40.1875 44.625 
Q 40.1875 45.125 40.15625 46.171875 
Q 40.140625 47.21875 40.109375 48.359375 
Q 40.09375 49.515625 40.09375 50.53125 
Q 40.09375 51.5625 40.09375 52 
L 40.09375 72.46875 
L 48.875 72.46875 
L 48.875 10.890625 
Q 48.875 8.984375 48.890625 7.21875 
Q 48.921875 5.46875 48.96875 4 
Q 49.03125 2.546875 49.078125 1.484375 
Q 49.125 0.4375 49.171875 0 
L 40.765625 0 
Q 40.671875 0.484375 40.59375 1.390625 
Q 40.53125 2.296875 40.453125 3.46875 
Q 40.375 4.640625 40.328125 5.9375 
Q 40.28125 7.234375 40.28125 8.5 
z
M 13.421875 26.46875 
Q 13.421875 21 14.109375 17.09375 
Q 14.796875 13.1875 16.3125 10.671875 
Q 17.828125 8.15625 20.171875 6.984375 
Q 22.515625 5.8125 25.875 5.8125 
Q 29.34375 5.8125 32 6.9375 
Q 34.671875 8.0625 36.453125 10.578125 
Q 38.234375 13.09375 39.15625 17.140625 
Q 40.09375 21.1875 40.09375 27.046875 
Q 40.09375 32.671875 39.15625 36.546875 
Q 38.234375 40.4375 36.421875 42.828125 
Q 34.625 45.21875 32 46.265625 
Q 29.390625 47.3125 25.984375 47.3125 
Q 22.75 47.3125 20.40625 46.1875 
Q 18.0625 45.0625 16.5 42.578125 
Q 14.9375 40.09375 14.171875 36.109375 
Q 13.421875 32.125 13.421875 26.46875 
z
" id="LiberationSans-100"/>
      <path d="M 9.234375 0 
L 9.234375 68.796875 
L 18.5625 68.796875 
L 18.5625 0 
z
" id="LiberationSans-73"/>
      <path d="M 29.5 0 
Q 27.640625 -4.78125 25.703125 -8.609375 
Q 23.78125 -12.453125 21.390625 -15.15625 
Q 19 -17.875 16.0625 -19.3125 
Q 13.140625 -20.75 9.328125 -20.75 
Q 7.671875 -20.75 6.25 -20.65625 
Q 4.828125 -20.5625 3.265625 -20.21875 
L 3.265625 -13.625 
Q 4.203125 -13.765625 5.375 -13.84375 
Q 6.546875 -13.921875 7.375 -13.921875 
Q 11.234375 -13.921875 14.546875 -11.03125 
Q 17.875 -8.15625 20.359375 -1.859375 
L 21.1875 0.25 
L 0.25 52.828125 
L 9.625 52.828125 
L 20.75 23.640625 
Q 21.234375 22.3125 21.984375 20.109375 
Q 22.75 17.921875 23.5 15.71875 
Q 24.265625 13.53125 24.84375 11.765625 
Q 25.4375 10.015625 25.53125 9.578125 
Q 25.6875 10.109375 26.25 11.6875 
Q 26.8125 13.28125 27.515625 15.234375 
Q 28.21875 17.1875 28.953125 19.1875 
Q 29.6875 21.1875 30.171875 22.65625 
L 40.53125 52.828125 
L 49.8125 52.828125 
z
" id="LiberationSans-121"/>
     </defs>
     <g style="fill:#262626;" transform="translate(23.705 153.201555)rotate(-90)scale(0.14 -0.14)">
      <use xlink:href="#LiberationSans-78"/>
      <use x="72.216797" xlink:href="#LiberationSans-111"/>
      <use x="127.832031" xlink:href="#LiberationSans-114"/>
      <use x="161.132812" xlink:href="#LiberationSans-109"/>
      <use x="244.433594" xlink:href="#LiberationSans-97"/>
      <use x="300.048828" xlink:href="#LiberationSans-108"/>
      <use x="322.265625" xlink:href="#LiberationSans-105"/>
      <use x="344.482422" xlink:href="#LiberationSans-122"/>
      <use x="394.482422" xlink:href="#LiberationSans-101"/>
      <use x="450.097656" xlink:href="#LiberationSans-100"/>
      <use x="505.712891" xlink:href="#LiberationSans-32"/>
      <use x="533.496094" xlink:href="#LiberationSans-73"/>
      <use x="561.279297" xlink:href="#LiberationSans-110"/>
      <use x="616.894531" xlink:href="#LiberationSans-116"/>
      <use x="644.677734" xlink:href="#LiberationSans-101"/>
      <use x="700.292969" xlink:href="#LiberationSans-110"/>
      <use x="755.908203" xlink:href="#LiberationSans-115"/>
      <use x="805.908203" xlink:href="#LiberationSans-105"/>
      <use x="828.125" xlink:href="#LiberationSans-116"/>
      <use x="855.908203" xlink:href="#LiberationSans-121"/>
     </g>
    </g>
   </g>
   <g id="PolyCollection_1">
    <defs>
     <path d="M 56.79 -74.014131 
L 56.79 -46.440184 
L 60.132081 -48.801872 
L 63.474161 -50.231058 
L 66.816242 -51.43471 
L 70.158322 -54.241767 
L 73.500403 -56.050829 
L 76.842483 -55.538714 
L 80.184564 -53.21089 
L 83.526644 -49.833388 
L 86.868725 -48.444441 
L 90.210805 -51.400465 
L 93.552886 -53.242546 
L 96.894966 -53.340419 
L 100.237047 -54.433584 
L 103.579128 -56.303382 
L 106.921208 -57.966491 
L 110.263289 -59.666071 
L 113.605369 -60.723374 
L 116.94745 -60.910724 
L 120.28953 -61.36029 
L 123.631611 -61.918604 
L 126.973691 -62.636619 
L 130.315772 -62.866861 
L 133.657852 -62.78285 
L 136.999933 -62.778331 
L 140.342013 -62.662252 
L 143.684094 -62.606133 
L 147.026174 -62.634823 
L 150.368255 -62.840298 
L 153.710336 -63.013056 
L 157.052416 -62.886251 
L 160.394497 -63.07092 
L 163.736577 -63.039236 
L 167.078658 -62.849376 
L 170.420738 -62.574138 
L 173.762819 -61.842367 
L 177.104899 -61.123377 
L 180.44698 -60.578013 
L 183.78906 -60.270321 
L 187.131141 -60.311616 
L 190.473221 -60.599946 
L 193.815302 -60.941382 
L 197.157383 -61.160364 
L 200.499463 -61.286037 
L 203.841544 -61.316347 
L 207.183624 -61.515762 
L 210.525705 -61.75136 
L 213.867785 -61.900919 
L 217.209866 -61.884909 
L 220.551946 -61.791246 
L 223.894027 -61.800218 
L 227.236107 -62.102092 
L 230.578188 -62.404419 
L 233.920268 -62.647419 
L 237.262349 -62.773822 
L 240.60443 -62.885257 
L 243.94651 -63.129348 
L 247.288591 -63.367461 
L 250.630671 -63.581065 
L 253.972752 -63.760118 
L 257.314832 -63.948195 
L 260.656913 -64.097011 
L 263.998993 -64.261291 
L 267.341074 -64.627007 
L 270.683154 -64.849779 
L 274.025235 -64.748589 
L 277.367315 -64.634377 
L 280.709396 -64.343889 
L 284.051477 -64.084968 
L 287.393557 -63.878898 
L 290.735638 -63.876355 
L 294.077718 -63.703691 
L 297.419799 -63.234346 
L 300.761879 -62.707345 
L 304.10396 -62.032451 
L 307.44604 -61.833907 
L 310.788121 -62.205486 
L 314.130201 -62.431124 
L 317.472282 -62.353317 
L 320.814362 -62.155092 
L 324.156443 -61.827683 
L 327.498523 -61.616145 
L 330.840604 -61.515973 
L 334.182685 -61.706034 
L 337.524765 -62.477966 
L 340.866846 -63.16169 
L 344.208926 -63.525208 
L 347.551007 -63.532519 
L 350.893087 -63.284117 
L 354.235168 -62.950819 
L 357.577248 -62.457003 
L 360.919329 -61.887655 
L 364.261409 -61.69557 
L 367.60349 -61.562268 
L 370.94557 -61.500349 
L 374.287651 -61.620881 
L 377.629732 -61.811757 
L 380.971812 -62.058956 
L 384.313893 -62.138335 
L 387.655973 -62.056985 
L 390.998054 -61.955591 
L 394.340134 -61.833066 
L 397.682215 -61.510072 
L 401.024295 -61.475173 
L 404.366376 -61.584254 
L 407.708456 -61.631457 
L 411.050537 -61.588908 
L 414.392617 -61.383496 
L 417.734698 -61.05452 
L 421.076779 -60.602107 
L 424.418859 -60.282595 
L 427.76094 -59.962823 
L 431.10302 -59.533834 
L 434.445101 -58.949415 
L 437.787181 -58.420286 
L 441.129262 -57.913023 
L 444.471342 -57.551056 
L 447.813423 -57.394854 
L 451.155503 -57.469405 
L 454.497584 -57.545643 
L 457.839664 -57.48499 
L 461.181745 -57.130916 
L 464.523826 -56.545747 
L 467.865906 -55.817256 
L 471.207987 -55.211527 
L 474.550067 -54.817706 
L 477.892148 -54.367233 
L 481.234228 -54.040353 
L 484.576309 -54.204066 
L 487.918389 -53.61587 
L 491.26047 -53.024678 
L 494.60255 -52.391396 
L 497.944631 -51.696931 
L 501.286711 -51.655441 
L 504.628792 -51.507126 
L 507.970872 -51.083391 
L 511.312953 -50.395078 
L 514.655034 -50.566639 
L 517.997114 -50.695683 
L 521.339195 -50.728229 
L 524.681275 -50.592128 
L 528.023356 -50.382835 
L 531.365436 -50.450725 
L 534.707517 -50.18567 
L 538.049597 -49.824871 
L 541.391678 -49.388266 
L 544.733758 -49.415628 
L 548.075839 -49.462632 
L 551.417919 -49.471061 
L 554.76 -49.302819 
L 554.76 -57.70156 
L 554.76 -57.70156 
L 551.417919 -62.091186 
L 548.075839 -66.657482 
L 544.733758 -71.314602 
L 541.391678 -76.129434 
L 538.049597 -80.254238 
L 534.707517 -84.814879 
L 531.365436 -90.002583 
L 528.023356 -95.434208 
L 524.681275 -98.954841 
L 521.339195 -101.050083 
L 517.997114 -103.732686 
L 514.655034 -107.13981 
L 511.312953 -110.421684 
L 507.970872 -112.188082 
L 504.628792 -114.352377 
L 501.286711 -116.603677 
L 497.944631 -118.051923 
L 494.60255 -117.428644 
L 491.26047 -116.868779 
L 487.918389 -116.370757 
L 484.576309 -115.912622 
L 481.234228 -115.701866 
L 477.892148 -113.88564 
L 474.550067 -112.02558 
L 471.207987 -110.266672 
L 467.865906 -108.473807 
L 464.523826 -106.50177 
L 461.181745 -104.907586 
L 457.839664 -103.834191 
L 454.497584 -102.597265 
L 451.155503 -101.711654 
L 447.813423 -100.839923 
L 444.471342 -100.110801 
L 441.129262 -99.440504 
L 437.787181 -98.83578 
L 434.445101 -98.272062 
L 431.10302 -97.749694 
L 427.76094 -97.26561 
L 424.418859 -97.044433 
L 421.076779 -96.958186 
L 417.734698 -96.917086 
L 414.392617 -96.718739 
L 411.050537 -96.711661 
L 407.708456 -97.071006 
L 404.366376 -97.651473 
L 401.024295 -98.330585 
L 397.682215 -98.941252 
L 394.340134 -98.770964 
L 390.998054 -98.590287 
L 387.655973 -98.532231 
L 384.313893 -98.709753 
L 380.971812 -98.49301 
L 377.629732 -98.152449 
L 374.287651 -97.787723 
L 370.94557 -97.809808 
L 367.60349 -97.627207 
L 364.261409 -97.517931 
L 360.919329 -97.496948 
L 357.577248 -97.738191 
L 354.235168 -98.131432 
L 350.893087 -98.747818 
L 347.551007 -99.59054 
L 344.208926 -101.586807 
L 340.866846 -103.880019 
L 337.524765 -106.377736 
L 334.182685 -108.996529 
L 330.840604 -109.705145 
L 327.498523 -109.930051 
L 324.156443 -110.145472 
L 320.814362 -110.360394 
L 317.472282 -110.526493 
L 314.130201 -110.709145 
L 310.788121 -110.70908 
L 307.44604 -110.753868 
L 304.10396 -109.268097 
L 300.761879 -106.340372 
L 297.419799 -103.48992 
L 294.077718 -100.658527 
L 290.735638 -98.745348 
L 287.393557 -98.019878 
L 284.051477 -97.352661 
L 280.709396 -96.897368 
L 277.367315 -96.721016 
L 274.025235 -96.684033 
L 270.683154 -96.687233 
L 267.341074 -96.846425 
L 263.998993 -97.014088 
L 260.656913 -96.682906 
L 257.314832 -96.197551 
L 253.972752 -95.872364 
L 250.630671 -95.778058 
L 247.288591 -96.304697 
L 243.94651 -96.87506 
L 240.60443 -97.606456 
L 237.262349 -98.45186 
L 233.920268 -99.257208 
L 230.578188 -100.309704 
L 227.236107 -101.597449 
L 223.894027 -102.967357 
L 220.551946 -103.142117 
L 217.209866 -102.717377 
L 213.867785 -102.312046 
L 210.525705 -102.878525 
L 207.183624 -103.805419 
L 203.841544 -104.830536 
L 200.499463 -104.843194 
L 197.157383 -104.537781 
L 193.815302 -104.122061 
L 190.473221 -103.887352 
L 187.131141 -103.748295 
L 183.78906 -103.161829 
L 180.44698 -102.792786 
L 177.104899 -102.686178 
L 173.762819 -102.633035 
L 170.420738 -102.490121 
L 167.078658 -103.617178 
L 163.736577 -105.313469 
L 160.394497 -107.043223 
L 157.052416 -108.811795 
L 153.710336 -109.950397 
L 150.368255 -110.765787 
L 147.026174 -111.643975 
L 143.684094 -112.599548 
L 140.342013 -113.478426 
L 136.999933 -115.092163 
L 133.657852 -117.051046 
L 130.315772 -119.351352 
L 126.973691 -122.664004 
L 123.631611 -126.383449 
L 120.28953 -130.098101 
L 116.94745 -133.877582 
L 113.605369 -137.283961 
L 110.263289 -143.135568 
L 106.921208 -150.943286 
L 103.579128 -161.32831 
L 100.237047 -173.431944 
L 96.894966 -183.596756 
L 93.552886 -191.112345 
L 90.210805 -196.213095 
L 86.868725 -201.477202 
L 83.526644 -191.988987 
L 80.184564 -173.319614 
L 76.842483 -155.388037 
L 73.500403 -139.720176 
L 70.158322 -123.89038 
L 66.816242 -109.073094 
L 63.474161 -96.716918 
L 60.132081 -84.899273 
L 56.79 -74.014131 
z
" id="m51c0d351a8"/>
    </defs>
    <g clip-path="url(#p917ce4e4e3)">
     <use style="fill:#ff6347;fill-opacity:0.2;" x="0" xlink:href="#m51c0d351a8" y="216"/>
    </g>
   </g>
   <g id="PolyCollection_2">
    <defs>
     <path d="M 56.79 -53.924248 
L 56.79 -49.565546 
L 60.132081 -48.753111 
L 63.474161 -47.85044 
L 66.816242 -46.943941 
L 70.158322 -47.222968 
L 73.500403 -48.244551 
L 76.842483 -49.19419 
L 80.184564 -49.945014 
L 83.526644 -50.268279 
L 86.868725 -50.370633 
L 90.210805 -50.369854 
L 93.552886 -50.281403 
L 96.894966 -50.624283 
L 100.237047 -51.291461 
L 103.579128 -51.900362 
L 106.921208 -52.417268 
L 110.263289 -53.064243 
L 113.605369 -53.777783 
L 116.94745 -54.441053 
L 120.28953 -55.072449 
L 123.631611 -55.366299 
L 126.973691 -55.550436 
L 130.315772 -55.703522 
L 133.657852 -55.748854 
L 136.999933 -55.914979 
L 140.342013 -56.12846 
L 143.684094 -56.287153 
L 147.026174 -56.481542 
L 150.368255 -56.689891 
L 153.710336 -56.771395 
L 157.052416 -56.773955 
L 160.394497 -56.785539 
L 163.736577 -56.808721 
L 167.078658 -56.815824 
L 170.420738 -56.917125 
L 173.762819 -56.95484 
L 177.104899 -56.969124 
L 180.44698 -57.018384 
L 183.78906 -57.08348 
L 187.131141 -57.08239 
L 190.473221 -57.106079 
L 193.815302 -57.144179 
L 197.157383 -57.224882 
L 200.499463 -57.30628 
L 203.841544 -57.342079 
L 207.183624 -57.369141 
L 210.525705 -57.363303 
L 213.867785 -57.326208 
L 217.209866 -57.298196 
L 220.551946 -57.252187 
L 223.894027 -57.279486 
L 227.236107 -57.401846 
L 230.578188 -57.536247 
L 233.920268 -57.609313 
L 237.262349 -57.584487 
L 240.60443 -57.377298 
L 243.94651 -57.255722 
L 247.288591 -57.203113 
L 250.630671 -57.363691 
L 253.972752 -57.626068 
L 257.314832 -57.831197 
L 260.656913 -57.999629 
L 263.998993 -58.037936 
L 267.341074 -58.031863 
L 270.683154 -58.046966 
L 274.025235 -57.951967 
L 277.367315 -57.732514 
L 280.709396 -57.302668 
L 284.051477 -56.949929 
L 287.393557 -56.773198 
L 290.735638 -56.536324 
L 294.077718 -56.558731 
L 297.419799 -56.624045 
L 300.761879 -56.445876 
L 304.10396 -55.73984 
L 307.44604 -54.772213 
L 310.788121 -53.605541 
L 314.130201 -53.242111 
L 317.472282 -53.40944 
L 320.814362 -53.553717 
L 324.156443 -53.69779 
L 327.498523 -54.076419 
L 330.840604 -54.474196 
L 334.182685 -54.8898 
L 337.524765 -55.325874 
L 340.866846 -55.541142 
L 344.208926 -55.719414 
L 347.551007 -55.937843 
L 350.893087 -56.051991 
L 354.235168 -56.112343 
L 357.577248 -56.212713 
L 360.919329 -56.385106 
L 364.261409 -56.487526 
L 367.60349 -56.523672 
L 370.94557 -56.527094 
L 374.287651 -56.520063 
L 377.629732 -56.583192 
L 380.971812 -56.670729 
L 384.313893 -56.798134 
L 387.655973 -56.957346 
L 390.998054 -57.077914 
L 394.340134 -57.169558 
L 397.682215 -57.219276 
L 401.024295 -57.191894 
L 404.366376 -57.105686 
L 407.708456 -56.987558 
L 411.050537 -56.881765 
L 414.392617 -56.778391 
L 417.734698 -56.833666 
L 421.076779 -57.006361 
L 424.418859 -57.123768 
L 427.76094 -57.115985 
L 431.10302 -57.050563 
L 434.445101 -56.879057 
L 437.787181 -56.661367 
L 441.129262 -56.517325 
L 444.471342 -56.454667 
L 447.813423 -56.437059 
L 451.155503 -56.423337 
L 454.497584 -56.362232 
L 457.839664 -56.26013 
L 461.181745 -56.172498 
L 464.523826 -56.077796 
L 467.865906 -56.038607 
L 471.207987 -55.971569 
L 474.550067 -55.956181 
L 477.892148 -55.844929 
L 481.234228 -55.611324 
L 484.576309 -55.334902 
L 487.918389 -55.074114 
L 491.26047 -54.848939 
L 494.60255 -54.562414 
L 497.944631 -54.261988 
L 501.286711 -53.972029 
L 504.628792 -53.646824 
L 507.970872 -53.324871 
L 511.312953 -52.968898 
L 514.655034 -52.521174 
L 517.997114 -51.831281 
L 521.339195 -50.975781 
L 524.681275 -50.181338 
L 528.023356 -49.347377 
L 531.365436 -48.915958 
L 534.707517 -48.733843 
L 538.049597 -48.459116 
L 541.391678 -48.130037 
L 544.733758 -48.516971 
L 548.075839 -49.009539 
L 551.417919 -49.463886 
L 554.76 -49.846642 
L 554.76 -54.39211 
L 554.76 -54.39211 
L 551.417919 -57.068203 
L 548.075839 -59.815888 
L 544.733758 -62.534227 
L 541.391678 -65.004786 
L 538.049597 -66.412571 
L 534.707517 -67.817679 
L 531.365436 -69.193602 
L 528.023356 -69.964816 
L 524.681275 -70.00913 
L 521.339195 -70.112349 
L 517.997114 -69.926342 
L 514.655034 -69.807365 
L 511.312953 -69.896994 
L 507.970872 -69.975143 
L 504.628792 -70.178533 
L 501.286711 -70.252822 
L 497.944631 -70.348416 
L 494.60255 -70.401175 
L 491.26047 -70.25003 
L 487.918389 -70.189455 
L 484.576309 -70.149154 
L 481.234228 -70.198424 
L 477.892148 -70.240734 
L 474.550067 -70.042612 
L 471.207987 -69.846272 
L 467.865906 -69.768043 
L 464.523826 -69.749991 
L 461.181745 -69.887489 
L 457.839664 -70.045963 
L 454.497584 -70.219417 
L 451.155503 -70.524915 
L 447.813423 -70.92311 
L 444.471342 -71.268591 
L 441.129262 -71.613894 
L 437.787181 -71.890207 
L 434.445101 -72.009702 
L 431.10302 -72.078812 
L 427.76094 -71.930717 
L 424.418859 -71.811167 
L 421.076779 -71.612785 
L 417.734698 -71.475617 
L 414.392617 -71.431263 
L 411.050537 -71.357844 
L 407.708456 -71.240051 
L 404.366376 -71.161981 
L 401.024295 -71.181483 
L 397.682215 -71.444387 
L 394.340134 -71.842361 
L 390.998054 -72.19914 
L 387.655973 -72.528654 
L 384.313893 -72.824677 
L 380.971812 -73.026658 
L 377.629732 -73.063516 
L 374.287651 -73.058377 
L 370.94557 -73.008212 
L 367.60349 -72.9379 
L 364.261409 -72.976251 
L 360.919329 -73.0715 
L 357.577248 -73.267061 
L 354.235168 -73.477588 
L 350.893087 -73.655805 
L 347.551007 -74.099968 
L 344.208926 -74.643064 
L 340.866846 -75.259805 
L 337.524765 -75.907281 
L 334.182685 -76.878714 
L 330.840604 -77.899051 
L 327.498523 -79.038471 
L 324.156443 -80.102997 
L 320.814362 -80.905394 
L 317.472282 -81.736772 
L 314.130201 -82.516047 
L 310.788121 -82.281065 
L 307.44604 -80.756994 
L 304.10396 -79.356444 
L 300.761879 -78.149514 
L 297.419799 -77.762425 
L 294.077718 -77.939883 
L 290.735638 -78.127612 
L 287.393557 -77.916886 
L 284.051477 -77.599048 
L 280.709396 -76.908556 
L 277.367315 -76.042014 
L 274.025235 -75.292459 
L 270.683154 -74.499255 
L 267.341074 -73.777009 
L 263.998993 -73.152489 
L 260.656913 -72.61638 
L 257.314832 -72.463227 
L 253.972752 -72.348269 
L 250.630671 -72.266251 
L 247.288591 -72.129249 
L 243.94651 -71.872759 
L 240.60443 -71.566026 
L 237.262349 -71.294485 
L 233.920268 -71.198746 
L 230.578188 -71.288615 
L 227.236107 -71.555054 
L 223.894027 -71.93178 
L 220.551946 -71.886902 
L 217.209866 -71.647128 
L 213.867785 -71.357549 
L 210.525705 -71.158955 
L 207.183624 -71.103011 
L 203.841544 -71.123561 
L 200.499463 -71.24166 
L 197.157383 -71.376347 
L 193.815302 -71.56212 
L 190.473221 -71.796006 
L 187.131141 -71.980375 
L 183.78906 -72.086019 
L 180.44698 -72.169418 
L 177.104899 -72.366381 
L 173.762819 -72.389904 
L 170.420738 -72.267134 
L 167.078658 -71.969256 
L 163.736577 -71.668927 
L 160.394497 -71.388451 
L 157.052416 -71.330659 
L 153.710336 -71.408266 
L 150.368255 -71.398167 
L 147.026174 -71.362796 
L 143.684094 -71.530383 
L 140.342013 -71.805185 
L 136.999933 -72.105569 
L 133.657852 -72.467892 
L 130.315772 -72.479771 
L 126.973691 -72.401343 
L 123.631611 -72.1267 
L 120.28953 -71.627997 
L 116.94745 -71.832594 
L 113.605369 -72.137357 
L 110.263289 -72.499496 
L 106.921208 -72.848495 
L 103.579128 -72.726475 
L 100.237047 -72.641286 
L 96.894966 -72.110824 
L 93.552886 -70.795388 
L 90.210805 -68.706185 
L 86.868725 -66.827179 
L 83.526644 -65.126055 
L 80.184564 -63.930423 
L 76.842483 -63.344163 
L 73.500403 -63.061997 
L 70.158322 -62.94653 
L 66.816242 -61.913437 
L 63.474161 -59.196676 
L 60.132081 -56.515344 
L 56.79 -53.924248 
z
" id="m9962b19ea1"/>
    </defs>
    <g clip-path="url(#p917ce4e4e3)">
     <use style="fill:#808080;fill-opacity:0.2;" x="0" xlink:href="#m9962b19ea1" y="216"/>
    </g>
   </g>
   <g id="line2d_12">
    <path clip-path="url(#p917ce4e4e3)" d="M 56.79 155.772843 
L 66.816242 135.746098 
L 73.500403 118.114497 
L 80.184564 102.734748 
L 83.526644 95.088813 
L 86.868725 91.039179 
L 90.210805 92.19322 
L 93.552886 93.822554 
L 96.894966 97.531412 
L 100.237047 102.067236 
L 103.579128 107.184154 
L 106.921208 111.545111 
L 110.263289 114.59918 
L 113.605369 116.996333 
L 126.973691 123.349689 
L 130.315772 124.890894 
L 133.657852 126.083052 
L 136.999933 127.064753 
L 140.342013 127.929661 
L 147.026174 128.860601 
L 153.710336 129.518273 
L 157.052416 130.150977 
L 163.736577 131.823647 
L 167.078658 132.766723 
L 170.420738 133.467871 
L 180.44698 134.3146 
L 183.78906 134.283925 
L 190.473221 133.756351 
L 200.499463 132.935385 
L 203.841544 132.926558 
L 210.525705 133.685058 
L 213.867785 133.893518 
L 220.551946 133.533318 
L 223.894027 133.616213 
L 230.578188 134.642939 
L 240.60443 135.754144 
L 247.288591 136.163921 
L 250.630671 136.320438 
L 253.972752 136.183759 
L 267.341074 135.263284 
L 274.025235 135.283689 
L 280.709396 135.379372 
L 284.051477 135.281185 
L 287.393557 135.050612 
L 290.735638 134.689148 
L 294.077718 133.818891 
L 304.10396 130.349726 
L 307.44604 129.706112 
L 314.130201 129.429866 
L 320.814362 129.742257 
L 327.498523 130.226902 
L 334.182685 130.648718 
L 347.551007 134.43847 
L 354.235168 135.458874 
L 360.919329 136.307699 
L 367.60349 136.405262 
L 374.287651 136.295698 
L 380.971812 135.724017 
L 384.313893 135.575956 
L 390.998054 135.727061 
L 397.682215 135.774338 
L 407.708456 136.648768 
L 414.392617 136.948883 
L 417.734698 137.014197 
L 424.418859 137.336486 
L 434.445101 137.389262 
L 441.129262 137.323237 
L 444.471342 137.169072 
L 447.813423 136.882612 
L 454.497584 135.928546 
L 457.839664 135.340409 
L 461.181745 134.980749 
L 464.523826 134.476241 
L 474.550067 132.578357 
L 481.234228 131.12889 
L 484.576309 130.941656 
L 497.944631 131.125573 
L 501.286711 131.870441 
L 507.970872 134.364263 
L 511.312953 135.591619 
L 517.997114 138.785816 
L 521.339195 140.110844 
L 524.681275 141.226515 
L 528.023356 143.091478 
L 534.707517 148.499726 
L 538.049597 150.960446 
L 544.733758 155.634885 
L 554.76 162.49781 
L 554.76 162.49781 
" style="fill:none;stroke:#ff6347;stroke-linecap:round;stroke-width:3;"/>
   </g>
   <g id="line2d_13">
    <path clip-path="url(#p917ce4e4e3)" d="M 56.79 164.255103 
L 66.816242 161.571311 
L 73.500403 160.346726 
L 80.184564 159.062281 
L 83.526644 158.302833 
L 90.210805 156.461981 
L 93.552886 155.461605 
L 96.894966 154.632447 
L 100.237047 154.033626 
L 106.921208 153.367119 
L 116.94745 152.863176 
L 120.28953 152.649777 
L 123.631611 152.253501 
L 126.973691 152.024111 
L 133.657852 151.891627 
L 143.684094 152.091232 
L 150.368255 151.955971 
L 163.736577 151.761176 
L 173.762819 151.327628 
L 183.78906 151.41525 
L 210.525705 151.738871 
L 223.894027 151.394367 
L 230.578188 151.587569 
L 240.60443 151.528338 
L 250.630671 151.185029 
L 263.998993 150.404787 
L 280.709396 148.894388 
L 287.393557 148.654958 
L 294.077718 148.750693 
L 297.419799 148.806765 
L 300.761879 148.702305 
L 310.788121 148.056697 
L 314.130201 148.120921 
L 327.498523 149.442555 
L 334.182685 150.115743 
L 344.208926 150.818761 
L 354.235168 151.205034 
L 364.261409 151.268111 
L 377.629732 151.176646 
L 384.313893 151.188594 
L 394.340134 151.49404 
L 401.024295 151.813311 
L 411.050537 151.880195 
L 417.734698 151.845359 
L 427.76094 151.476649 
L 431.10302 151.435313 
L 437.787181 151.724213 
L 454.497584 152.709175 
L 464.523826 153.086106 
L 471.207987 153.091079 
L 477.892148 152.957168 
L 491.26047 153.450515 
L 497.944631 153.694798 
L 511.312953 154.567054 
L 521.339195 155.455935 
L 528.023356 156.343904 
L 531.365436 156.94522 
L 538.049597 158.564156 
L 541.391678 159.432589 
L 548.075839 161.587287 
L 554.76 163.880624 
L 554.76 163.880624 
" style="fill:none;stroke:#808080;stroke-linecap:round;stroke-width:3;"/>
   </g>
   <g id="line2d_14">
    <path clip-path="url(#p917ce4e4e3)" d="M 56.79 165.06 
L 554.76 165.06 
" style="fill:none;stroke:#000000;stroke-linecap:round;stroke-width:3;"/>
   </g>
   <g id="line2d_15">
    <path clip-path="url(#p917ce4e4e3)" d="M 56.79 165.06 
L 56.79 14.522798 
" style="fill:none;stroke:#000000;stroke-linecap:round;stroke-width:3;"/>
   </g>
   <g id="patch_3">
    <path d="M 56.79 165.06 
L 56.79 14.522798 
" style="fill:none;stroke:#262626;stroke-linecap:square;stroke-linejoin:miter;stroke-width:1.25;"/>
   </g>
   <g id="patch_4">
    <path d="M 56.79 165.06 
L 554.76 165.06 
" style="fill:none;stroke:#262626;stroke-linecap:square;stroke-linejoin:miter;stroke-width:1.25;"/>
   </g>
   <g id="legend_1">
    <g id="line2d_16">
     <path d="M 451.6725 29.819048 
L 475.6725 29.819048 
" style="fill:none;stroke:#ff6347;stroke-linecap:round;stroke-width:3;"/>
    </g>
    <g id="line2d_17"/>
    <g id="text_14">
     <!-- NSSCP-32 -->
     <defs>
      <path d="M 62.109375 19 
Q 62.109375 14.65625 60.421875 10.984375 
Q 58.734375 7.328125 55.21875 4.65625 
Q 51.703125 2 46.359375 0.5 
Q 41.015625 -0.984375 33.6875 -0.984375 
Q 20.84375 -0.984375 13.671875 3.515625 
Q 6.5 8.015625 4.546875 16.5 
L 13.578125 18.3125 
Q 14.265625 15.625 15.671875 13.421875 
Q 17.09375 11.234375 19.5 9.640625 
Q 21.921875 8.0625 25.484375 7.171875 
Q 29.046875 6.296875 34.03125 6.296875 
Q 38.1875 6.296875 41.65625 7 
Q 45.125 7.71875 47.609375 9.171875 
Q 50.09375 10.640625 51.484375 12.953125 
Q 52.875 15.28125 52.875 18.5 
Q 52.875 21.875 51.34375 23.96875 
Q 49.8125 26.078125 47.015625 27.4375 
Q 44.234375 28.8125 40.375 29.734375 
Q 36.53125 30.671875 31.84375 31.734375 
Q 28.953125 32.375 26.046875 33.125 
Q 23.140625 33.890625 20.484375 34.9375 
Q 17.828125 35.984375 15.484375 37.390625 
Q 13.140625 38.8125 11.421875 40.796875 
Q 9.71875 42.78125 8.734375 45.390625 
Q 7.765625 48 7.765625 51.421875 
Q 7.765625 56.296875 9.734375 59.78125 
Q 11.71875 63.28125 15.234375 65.53125 
Q 18.75 67.78125 23.53125 68.796875 
Q 28.328125 69.828125 33.890625 69.828125 
Q 40.28125 69.828125 44.8125 68.828125 
Q 49.359375 67.828125 52.484375 65.8125 
Q 55.609375 63.8125 57.484375 60.859375 
Q 59.375 57.90625 60.5 54 
L 51.3125 52.390625 
Q 50.640625 54.890625 49.34375 56.84375 
Q 48.046875 58.796875 45.9375 60.109375 
Q 43.84375 61.421875 40.84375 62.109375 
Q 37.84375 62.796875 33.796875 62.796875 
Q 29 62.796875 25.75 61.9375 
Q 22.515625 61.078125 20.53125 59.609375 
Q 18.5625 58.15625 17.703125 56.171875 
Q 16.84375 54.203125 16.84375 51.90625 
Q 16.84375 48.828125 18.375 46.84375 
Q 19.921875 44.875 22.5625 43.546875 
Q 25.203125 42.234375 28.65625 41.359375 
Q 32.125 40.484375 36.03125 39.59375 
Q 39.203125 38.875 42.359375 38.109375 
Q 45.515625 37.359375 48.390625 36.296875 
Q 51.265625 35.25 53.78125 33.828125 
Q 56.296875 32.421875 58.15625 30.375 
Q 60.015625 28.328125 61.0625 25.53125 
Q 62.109375 22.75 62.109375 19 
z
" id="LiberationSans-83"/>
      <path d="M 4.4375 22.65625 
L 4.4375 30.46875 
L 28.859375 30.46875 
L 28.859375 22.65625 
z
" id="LiberationSans-45"/>
      <path d="M 51.21875 19 
Q 51.21875 14.265625 49.671875 10.546875 
Q 48.140625 6.84375 45.1875 4.265625 
Q 42.234375 1.703125 37.859375 0.359375 
Q 33.5 -0.984375 27.875 -0.984375 
Q 21.484375 -0.984375 17.109375 0.609375 
Q 12.75 2.203125 9.90625 4.8125 
Q 7.078125 7.421875 5.65625 10.765625 
Q 4.25 14.109375 3.8125 17.671875 
L 12.890625 18.5 
Q 13.28125 15.765625 14.328125 13.515625 
Q 15.375 11.28125 17.1875 9.671875 
Q 19 8.0625 21.625 7.171875 
Q 24.265625 6.296875 27.875 6.296875 
Q 34.515625 6.296875 38.296875 9.5625 
Q 42.09375 12.84375 42.09375 19.28125 
Q 42.09375 23.09375 40.40625 25.40625 
Q 38.71875 27.734375 36.203125 29.03125 
Q 33.6875 30.328125 30.734375 30.765625 
Q 27.78125 31.203125 25.296875 31.203125 
L 20.3125 31.203125 
L 20.3125 38.8125 
L 25.09375 38.8125 
Q 27.59375 38.8125 30.265625 39.328125 
Q 32.953125 39.84375 35.171875 41.1875 
Q 37.40625 42.53125 38.84375 44.828125 
Q 40.28125 47.125 40.28125 50.6875 
Q 40.28125 56.203125 37.03125 59.390625 
Q 33.796875 62.59375 27.390625 62.59375 
Q 21.578125 62.59375 17.984375 59.609375 
Q 14.40625 56.640625 13.8125 51.21875 
L 4.984375 51.90625 
Q 5.515625 56.453125 7.46875 59.8125 
Q 9.421875 63.1875 12.421875 65.40625 
Q 15.4375 67.625 19.28125 68.71875 
Q 23.140625 69.828125 27.484375 69.828125 
Q 33.25 69.828125 37.390625 68.375 
Q 41.546875 66.9375 44.1875 64.46875 
Q 46.828125 62.015625 48.0625 58.6875 
Q 49.3125 55.375 49.3125 51.609375 
Q 49.3125 48.578125 48.484375 45.9375 
Q 47.65625 43.3125 45.890625 41.203125 
Q 44.140625 39.109375 41.421875 37.59375 
Q 38.71875 36.078125 34.90625 35.296875 
L 34.90625 35.109375 
Q 39.0625 34.671875 42.140625 33.21875 
Q 45.21875 31.78125 47.21875 29.625 
Q 49.21875 27.484375 50.21875 24.75 
Q 51.21875 22.015625 51.21875 19 
z
" id="LiberationSans-51"/>
     </defs>
     <g style="fill:#262626;" transform="translate(485.2725 34.019048)scale(0.12 -0.12)">
      <use xlink:href="#LiberationSans-78"/>
      <use x="72.216797" xlink:href="#LiberationSans-83"/>
      <use x="138.916016" xlink:href="#LiberationSans-83"/>
      <use x="205.615234" xlink:href="#LiberationSans-67"/>
      <use x="277.832031" xlink:href="#LiberationSans-80"/>
      <use x="344.53125" xlink:href="#LiberationSans-45"/>
      <use x="377.832031" xlink:href="#LiberationSans-51"/>
      <use x="433.447266" xlink:href="#LiberationSans-50"/>
     </g>
    </g>
    <g id="line2d_18">
     <path d="M 451.6725 47.005298 
L 475.6725 47.005298 
" style="fill:none;stroke:#808080;stroke-linecap:round;stroke-width:3;"/>
    </g>
    <g id="line2d_19"/>
    <g id="text_15">
     <!-- NSSC-32 -->
     <g style="fill:#262626;" transform="translate(485.2725 51.205298)scale(0.12 -0.12)">
      <use xlink:href="#LiberationSans-78"/>
      <use x="72.216797" xlink:href="#LiberationSans-83"/>
      <use x="138.916016" xlink:href="#LiberationSans-83"/>
      <use x="205.615234" xlink:href="#LiberationSans-67"/>
      <use x="277.832031" xlink:href="#LiberationSans-45"/>
      <use x="311.132812" xlink:href="#LiberationSans-51"/>
      <use x="366.748047" xlink:href="#LiberationSans-50"/>
     </g>
    </g>
   </g>
  </g>
 </g>
 <defs>
  <clipPath id="p917ce4e4e3">
   <rect height="150.537202" width="497.97" x="56.79" y="14.522798"/>
  </clipPath>
 </defs>
</svg>
